<?xml version="1.0" ?><svg data-name="Layer 1" id="Layer_1" viewBox="0 0 256 256" xmlns="http://www.w3.org/2000/svg"><defs><style>.cls-1{fill:#787878;}</style></defs><title/><path class="cls-1" d="M234.9,198.47a3.45,3.45,0,0,0-4.53-1.83l-21.15,9-30.34-67.24V89.28a13.43,13.43,0,0,0-13.41-13.41H82.32a13.4,13.4,0,0,0-12.91,10H65.84V27.15A3.47,3.47,0,0,0,62,23.71L39.11,26.13A3.45,3.45,0,1,0,39.83,33l19.1-2v76.3a65.52,65.52,0,1,0,92.86,62.91H172v22.67a20.37,20.37,0,1,0,26.66,24.81L233.07,203A3.45,3.45,0,0,0,234.9,198.47Zm-94-35.19a54.39,54.39,0,0,0-4.54-18.65h4.34a58.48,58.48,0,0,1,4.18,18.65Zm-42.4,0a12.66,12.66,0,1,0,0,6.91H134a47.74,47.74,0,1,1-75.06-42.47v35.56h-8a3.46,3.46,0,0,0,0,6.91H62.38a3.45,3.45,0,0,0,3.46-3.45V144.63H128.7A47.25,47.25,0,0,1,134,163.28Zm-6.37,3.46A5.74,5.74,0,1,1,86.39,161,5.75,5.75,0,0,1,92.13,166.74Zm32.12-29H65.84V132h53.22A48.73,48.73,0,0,1,124.25,137.72Zm-58.41-14a47.4,47.4,0,0,1,43.84,1.38H65.84Zm55.87,1.38a54.41,54.41,0,0,0-55.87-9v-4.23a58.26,58.26,0,0,1,61.78,13.19Zm11,12.66a58.09,58.09,0,0,0-4.09-5.75h5a57.53,57.53,0,0,1,3.78,5.75Zm9.23-5.75H172v5.75H145.11C144.13,135.75,143.05,133.83,141.89,132ZM82.32,82.78h83.15a6.49,6.49,0,0,1,5.5,3H76.81A6.5,6.5,0,0,1,82.32,82.78Zm-16.48,10H172v32.33H137a65.3,65.3,0,0,0-71.14-20.54ZM86.39,225.4A58.64,58.64,0,0,1,58.93,114.94v4.59a54.64,54.64,0,1,0,82,50.66h4A58.69,58.69,0,0,1,86.39,225.4Zm65.4-62.12a65.21,65.21,0,0,0-3.74-18.65H172v18.65Zm27.09-8.08,24,53.15-3.51,1.5a20.42,20.42,0,0,0-20.27-18.3h-.21Zm.21,70.2a13.47,13.47,0,1,1,13.47-13.47A13.48,13.48,0,0,1,179.09,225.4Z"/></svg>