<?xml version="1.0" ?><svg data-name="Layer 1" id="Layer_1" viewBox="0 0 256 256" xmlns="http://www.w3.org/2000/svg"><defs><style>.cls-1{fill:#787878;}</style></defs><title/><path class="cls-1" d="M220,186c-1.16-9-4.58-16.5-10.27-22.42-16.11-16.74-44.15-14.29-45.24-14.19-47.81,3.25-46.32,48.08-46.3,48.53a3,3,0,0,0,0,.42c1.4,8.26.27,14.86-3.38,19.61-5.31,7-14.45,7.89-14.83,7.94-.54.09-13.48,2.2-23.5-7.89-7.1-7.15-6.43-24.49-5.58-30.57,0,0,0,0,0-.07s0,0,0-.07c.56-5.56,3.48-9.31,7.19-14.06,1.56-2,3.17-4.06,4.72-6.43,4.91-7.52,7.3-18.91,7.8-21.51a26.39,26.39,0,0,0,3.42-12.95h0c0-2.76.47-63.21-22.06-93.36.51-.55,1-1.1,1.56-1.61A29,29,0,0,1,93.73,29a8.25,8.25,0,0,0,6.59,6.45l8.82,1.61a8.44,8.44,0,0,0,1.49.14,8.29,8.29,0,0,0,8.13-6.78l.2-1.13a8.27,8.27,0,0,0-6.64-9.62l-8.82-1.61a8.22,8.22,0,0,0-8.64,4.07,36.09,36.09,0,0,0-26,10.18c-.46.43-.89.91-1.34,1.36-.44-.45-.88-.93-1.34-1.36a36.09,36.09,0,0,0-26-10.18,8.14,8.14,0,0,0-8.65-4.07l-8.81,1.61A8.28,8.28,0,0,0,16,29.32l.21,1.12a8.29,8.29,0,0,0,8.13,6.78,8.44,8.44,0,0,0,1.49-.14l8.81-1.61A8.2,8.2,0,0,0,40,32a8.38,8.38,0,0,0,1.3-3,29.06,29.06,0,0,1,20.15,8.34c.54.51,1,1.06,1.57,1.61-22.44,30-22.1,90.11-22.07,93.3v0a26.39,26.39,0,0,0,3.42,13c.5,2.6,2.89,14,7.81,21.51,1.54,2.37,3.16,4.43,4.72,6.43,3.63,4.65,6.5,8.36,7.13,13.75-.45,3.7-2.67,25.57,7.59,35.89A34.9,34.9,0,0,0,96.52,233a25.68,25.68,0,0,0,4.38-.31c.49,0,12.15-1.16,19.36-10.5,4.86-6.31,6.47-14.65,4.79-24.81-.08-3.29,0-38.43,40-41.14.25,0,25.88-2.28,39.7,12.09a31.38,31.38,0,0,1,8.11,16.9A26.38,26.38,0,1,0,220,186ZM102.26,24.87l8.82,1.62a1.36,1.36,0,0,1,1.08,1.58L112,29.2a1.37,1.37,0,0,1-1.58,1.09l-8.82-1.62a1.33,1.33,0,0,1-.86-.56,1.39,1.39,0,0,1-.23-1l.21-1.14A1.4,1.4,0,0,1,102.26,24.87Zm-68,3.24a1.36,1.36,0,0,1-.87.56l-8.81,1.62A1.39,1.39,0,0,1,23,29.19l-.21-1.12a1.36,1.36,0,0,1,.22-1,1.4,1.4,0,0,1,.87-.56l8.82-1.62.23,0A1.37,1.37,0,0,1,34.3,26l.21,1.14A1.35,1.35,0,0,1,34.29,28.11Zm33.2,16.4c20.09,28.75,19.67,87.1,19.66,87.74v0a19.66,19.66,0,0,1-39.32,0h0v0C47.82,131.61,47.41,73.26,67.49,44.51ZM57.93,163a38.58,38.58,0,0,1-3.69-7.73,26.37,26.37,0,0,0,26.5,0A38,38,0,0,1,77.05,163c-1.38,2.12-2.91,4.07-4.38,6a65.7,65.7,0,0,0-5.18,7.34A64.42,64.42,0,0,0,62.31,169C60.84,167.09,59.32,165.14,57.93,163ZM213.69,205.4a6.25,6.25,0,1,1-6.25,6.24A6.25,6.25,0,0,1,213.69,205.4Zm0,25.75a19.51,19.51,0,0,1-.2-39,61,61,0,0,1-.25,6.39,13.25,13.25,0,1,0,6.77,1.65,67.68,67.68,0,0,0,.36-6.85,19.5,19.5,0,0,1-6.68,37.82Z"/></svg>