<?xml version="1.0" ?><svg data-name="Layer 1" id="Layer_1" viewBox="0 0 256 256" xmlns="http://www.w3.org/2000/svg"><defs><style>.cls-1{fill:#787878;}</style></defs><title/><path class="cls-1" d="M161.07,94.05A62.51,62.51,0,0,0,148.83,52.7a11.19,11.19,0,0,0-1.4-2,9.87,9.87,0,0,0-.75-.7c-.43-.52-.81-1.07-1.26-1.58A63,63,0,1,0,89.63,152.5a9,9,0,0,0,5.76.55c1,0,1.92.09,2.88.09a63,63,0,0,0,62.8-59.09ZM141.85,61.73a4.64,4.64,0,1,1-.06-6.79c.32.4.64.79,1,1.2A4.5,4.5,0,0,1,141.85,61.73ZM91.5,145.53a2.53,2.53,0,0,1,1.89-4.2h.16a2.52,2.52,0,0,1,1.52,4.41,2.42,2.42,0,0,1-.6.35c-.87-.06-1.73-.2-2.6-.3A2.33,2.33,0,0,1,91.5,145.53Zm43.8-13.34A55.6,55.6,0,0,1,102.56,146a9.06,9.06,0,0,0,.25-1.56A9.43,9.43,0,1,0,84,143.27a11,11,0,0,0,0,1.15A56.11,56.11,0,0,1,98.1,34c1.18,0,2.38,0,3.57.11a55.64,55.64,0,0,1,33,13.48,11.44,11.44,0,0,0-4.48,18.29,11.48,11.48,0,0,0,16.2,1,11.22,11.22,0,0,0,1.79-2.06,56,56,0,0,1-12.91,67.34Z"/><path class="cls-1" d="M229.73,218.07,220.82,208h0l-14-15.89h0l-49.09-55.62A75.13,75.13,0,1,0,136.76,155l63.11,71.5h0l8.91,10.1a13.92,13.92,0,0,0,9.61,4.68l.89,0a13.82,13.82,0,0,0,9.22-3.49A14,14,0,0,0,229.73,218.07Zm-36.42-9.49,10.58-9.34L213.35,210l-10.58,9.34ZM46.8,135.47a68.52,68.52,0,1,1,96.72,6A68.61,68.61,0,0,1,46.8,135.47Zm101.29,11.21c1.78-1.57,3.46-3.22,5.06-4.93l46.17,52.31-10.59,9.33L142.58,151.1C144.47,149.73,146.31,148.25,148.09,146.68Zm75.84,85.93a7.27,7.27,0,0,1-5.11,1.74A7,7,0,0,1,214,232l-6.62-7.51,10.58-9.34,6.63,7.51A7.07,7.07,0,0,1,223.93,232.61Z"/><path class="cls-1" d="M124.46,69.35a8.38,8.38,0,0,0-11.63,2.12l-8.77,12.65a8.43,8.43,0,0,0,2.3,11.76,8.26,8.26,0,0,0,4.74,1.48,7.89,7.89,0,0,0,1.52-.14A8.28,8.28,0,0,0,118,93.76l8.76-12.64h0A8.43,8.43,0,0,0,124.46,69.35Zm-3.38,7.83-8.76,12.65a1.5,1.5,0,0,1-.94.6,1.67,1.67,0,0,1-1.27-.36,1.47,1.47,0,0,1-.36-2l8.76-12.65a1.5,1.5,0,0,1,.93-.6l.23,0a1.81,1.81,0,0,1,1,.38A1.47,1.47,0,0,1,121.08,77.18Z"/><path class="cls-1" d="M72.39,93.54A11.08,11.08,0,0,0,89,78.88h0A11.08,11.08,0,1,0,72.39,93.54Zm5.55-10.46a4.17,4.17,0,0,1,5.88.37,4.13,4.13,0,0,1,1,3,4.17,4.17,0,1,1-6.92-3.39Z"/><path class="cls-1" d="M138.88,90.09a9.44,9.44,0,0,0-1.17,18.84l.6,0a9.44,9.44,0,0,0,.57-18.86ZM140,101.4a2.56,2.56,0,0,1-1.83.63,2.52,2.52,0,0,1-1.52-4.41,2.53,2.53,0,0,1,1.67-.63h.17a2.48,2.48,0,0,1,1.73.85h0a2.51,2.51,0,0,1-.22,3.56Z"/><path class="cls-1" d="M63.46,73.41a9.43,9.43,0,1,0-7.09-3.19A9.4,9.4,0,0,0,63.46,73.41ZM61.78,62.08a2.51,2.51,0,0,1,1.67-.63h.15a2.52,2.52,0,0,1,1.52,4.41,2.53,2.53,0,0,1-3.34-3.79Z"/><path class="cls-1" d="M71.6,112.39a9.43,9.43,0,0,0-13.32-.83,9.44,9.44,0,0,0,5.66,16.49h.6a9.34,9.34,0,0,0,6.23-2.36,9.44,9.44,0,0,0,.83-13.31Zm-5.4,8.13a2.53,2.53,0,0,1-3.57-.22,2.54,2.54,0,0,1,.22-3.56,2.54,2.54,0,0,1,3.57.22A2.53,2.53,0,0,1,66.2,120.52Z"/><path class="cls-1" d="M84.54,57.47a6.25,6.25,0,0,1,5.22,6.32,7.72,7.72,0,0,0,6,7.35,8.11,8.11,0,0,0,1.69.19h.21a7.77,7.77,0,0,0,7.54-7.95c-.38-14.2-11.91-20.05-18-21.16a7.75,7.75,0,0,0-2.73,15.25Zm.92-8.3a.77.77,0,0,1,.47-.16h.13c4.13.76,12,4.77,12.28,14.54a.84.84,0,0,1-.82.86.47.47,0,0,1-.19,0h0a.84.84,0,0,1-.65-.8A13.12,13.12,0,0,0,85.83,50.68a.9.9,0,0,1-.72-1A.83.83,0,0,1,85.46,49.17Z"/><path class="cls-1" d="M121.25,110a8,8,0,0,0-11.12,2.31,4.39,4.39,0,0,1-2.53,1.06,2.51,2.51,0,0,1-1.81-.29c-7-6.67-16.57-4.6-21.16-2.33a8,8,0,0,0,7,14.44,5.53,5.53,0,0,1,3.05-.53,17.8,17.8,0,0,0,12.42,4.79,20.12,20.12,0,0,0,2.31-.13,21.14,21.14,0,0,0,10-3.89h0a17.06,17.06,0,0,0,4.14-4.31A8,8,0,0,0,121.25,110Zm-3.47,7.32a10.08,10.08,0,0,1-2.47,2.55,13.94,13.94,0,0,1-6.68,2.58,11.23,11.23,0,0,1-9.16-2.77,7.44,7.44,0,0,0-5.32-2,14,14,0,0,0-5.44,1.24,1.13,1.13,0,0,1-1.49-.52,1.09,1.09,0,0,1,.49-1.48c.33-.16,8.05-3.9,13.3,1.14a9,9,0,0,0,7.36,2.17c3.19-.36,6.15-2,7.54-4.14a1.12,1.12,0,1,1,1.87,1.22Z"/></svg>