<?xml version="1.0" ?><svg data-name="Layer 1" id="Layer_1" viewBox="0 0 256 256" xmlns="http://www.w3.org/2000/svg"><defs><style>.cls-1{fill:#787878;}</style></defs><title/><path class="cls-1" d="M218.89,87.63h-2V68.77a3.45,3.45,0,0,0-3.46-3.45H207.3v-15a3.44,3.44,0,0,0-3.45-3.45H194V33.64a3.44,3.44,0,0,0-3.45-3.45H156.81a3.66,3.66,0,0,0-1.18.2l-23,8.36a3.46,3.46,0,1,0,2.36,6.5l22.42-8.15h29.69v9.81h-9.82a3.45,3.45,0,0,0-3.46,3.45v15h-6.15a3.44,3.44,0,0,0-3.45,3.45V87.63h-2a17.83,17.83,0,0,0-17.79,17.45l-11.59-16a14.81,14.81,0,0,0,11.24-14.34c0-7-10-22.23-12-25.21a3.58,3.58,0,0,0-5.74,0,139.12,139.12,0,0,0-8.25,14.06c-8-10.45-20.13-22.51-36.87-28.41l-13.78-19a3.45,3.45,0,0,0-5.59,4.05L76.34,40.11A3.49,3.49,0,0,0,78,41.36c17.48,5.82,29.73,19.27,37,29.74a13.58,13.58,0,0,0-.63,3.63,14.8,14.8,0,0,0,10.76,14.19c.73,1.65,1.12,2.66,1.14,2.71a3.67,3.67,0,0,0,.44.83l17.64,24.34v4.5a3.13,3.13,0,0,0-.14.69v17.49l-20.8-28.72h0l-2.1-2.9a3.46,3.46,0,1,0-5.6,4.05l28.36,39.16c0,.05.11.07.15.12v22.49l-31.52-43.51a3.45,3.45,0,0,0-1-.9l-6.88-9.5a3.45,3.45,0,1,0-5.59,4.06l38.15,52.68a14.22,14.22,0,0,0,1.78,2l4.85,6.69c0,.07.13.09.18.15v10.7a3.68,3.68,0,0,0-.45.21,6.74,6.74,0,0,1-9.37-1.5l-4.31-6h0L92,136.12a3.45,3.45,0,0,0-5.59,4l4.31,6h0l33.86,46.75a6.71,6.71,0,0,1-1.52,9.34,6.56,6.56,0,0,1-5,1.17,6.66,6.66,0,0,1-4.37-2.67L59.58,126C67,119.66,85.43,99.63,76.25,63.27A3.45,3.45,0,0,0,69.55,65c10,39.71-15.49,56.75-16.58,57.45l-.08.07s-.06,0-.08,0a3.32,3.32,0,0,0-.26.28,3.65,3.65,0,0,0-.57.61,4,4,0,0,0-.23.46,2.92,2.92,0,0,0-.25.7,3.59,3.59,0,0,0,0,1.25,3.37,3.37,0,0,0,.12.53c0,.12,0,.24.08.35l8.88,20.35c3.68,9,4.29,15.57,1.75,19-1.64,2.24-4.47,2.89-6.31,3.07L32.6,122.51c0-.1-3.55-9.67-.24-22.65,3.64-14.24,6.9-30,6.93-30.11a3.47,3.47,0,0,0-.48-2.57L25.65,46.71a3.45,3.45,0,1,0-5.81,3.73l12.4,19.28c-.87,4.12-3.59,16.78-6.57,28.43-3.89,15.23.3,26.37.61,27.14L50.77,174.2a3.45,3.45,0,0,0,2.77,1.9c.07,0,.49,0,1.14,0,2.64,0,9.2-.57,13.14-5.9,3.3-4.45,3.73-10.89,1.39-19.18l38.9,53.71a13.51,13.51,0,0,0,8.88,5.45,14.69,14.69,0,0,0,2.19.17,13.53,13.53,0,0,0,12.63-8.7,13.49,13.49,0,0,0,5.95,2.57,14.69,14.69,0,0,0,2.19.17,13.62,13.62,0,0,0,4.48-.78v19.81a17.84,17.84,0,0,0,17.82,17.82h56.64a17.84,17.84,0,0,0,17.82-17.82v-118A17.84,17.84,0,0,0,218.89,87.63ZM180.74,53.82H200.4v11.5H180.74Zm-9.6,18.41H210v15.4H171.14Zm-8.89,22.31h56.64a10.92,10.92,0,0,1,10.91,10.91v13.08H151.34V105.45A10.92,10.92,0,0,1,162.25,94.54Zm-10.91,30.9H229.7v71.47H151.34Zm-30-50.71c0-2.88,4-10.5,7.92-16.87,3.91,6.37,7.92,14,7.92,16.87a7.92,7.92,0,1,1-15.84,0Zm97.53,159.64H162.25a10.92,10.92,0,0,1-10.91-10.91V203.82H229.8v19.64A10.92,10.92,0,0,1,218.89,234.37Z"/><path class="cls-1" d="M214.4,149H201.82V136.42a3.46,3.46,0,0,0-3.46-3.45H182.77a3.46,3.46,0,0,0-3.45,3.45V149H166.74a3.46,3.46,0,0,0-3.46,3.45v15.59a3.45,3.45,0,0,0,3.46,3.45h12.58v12.59a3.46,3.46,0,0,0,3.45,3.45h15.59a3.46,3.46,0,0,0,3.46-3.45V171.5H214.4a3.44,3.44,0,0,0,3.45-3.45V152.46A3.45,3.45,0,0,0,214.4,149Zm-3.46,15.58H198.36a3.45,3.45,0,0,0-3.45,3.46v12.58h-8.68V168.05a3.46,3.46,0,0,0-3.46-3.46H170.19v-8.67h12.58a3.46,3.46,0,0,0,3.46-3.46V139.88h8.68v12.58a3.45,3.45,0,0,0,3.45,3.46h12.58Z"/></svg>