<?xml version="1.0" ?><svg data-name="Layer 1" id="Layer_1" viewBox="0 0 256 256" xmlns="http://www.w3.org/2000/svg"><defs><style>.cls-1{fill:#787878;}</style></defs><title/><path class="cls-1" d="M238.31,136.42a3.24,3.24,0,0,0-.24-1.19s0-.06-.06-.1a3.08,3.08,0,0,0-.42-.72L204.27,92.52a3.47,3.47,0,0,0-2.7-1.3H184.31l12.36-39a3.45,3.45,0,0,0-.93-3.56c-6.46-6.07-49-18.25-74.68-21.36-12.56-1.53-18.75-.35-20.71,4a6.11,6.11,0,0,0-.32,1.12l-.09.31a6.53,6.53,0,0,0,.3,3.24L102,46.61c-6.24-.83-12.49-1.86-17-2.6-2.86-.48-5.66-.94-8.35-1.36-1-.16-1.9-.26-2.81-.35a9.41,9.41,0,0,0-3.52-.13c-5.23.07-9.24,1.51-12,4.34-4.65,4.87-3.32,11.69-3.26,12a3.56,3.56,0,0,0,.23.72l14.26,32H54.43a3.45,3.45,0,0,0-2.7,1.3L18.41,134.41a3.08,3.08,0,0,0-.42.72s0,.07-.06.1a3.24,3.24,0,0,0-.24,1.19.7.7,0,0,0,0,.14v89.31a3.45,3.45,0,0,0,3.45,3.46H234.89a3.45,3.45,0,0,0,3.45-3.46V136.56A.7.7,0,0,0,238.31,136.42Zm-60.86-23.56a25.65,25.65,0,0,1,2.85,1,29.79,29.79,0,0,1-3.52,1.15ZM120.23,34.17c25.67,3.12,60.35,13.71,69.08,18.42l-20.3,64a235.82,235.82,0,0,1-32.13,2.65c1-5.43,3-17.26,7.31-43.66a3.46,3.46,0,0,0-6.82-1.12c-4.8,29.44-6.74,40.65-7.53,44.87l-1.84,0c-1.2,0-2.37,0-3.54,0l7-70.76a6.11,6.11,0,0,0-.47-4.94c-3.21-5.63-16.48-7.81-23.28-8.57a6.15,6.15,0,0,1-.67-.94C108.14,33.74,111.5,33.1,120.23,34.17Zm-11.94,8c7.52,1,14.64,3,16.36,4.61-1.65,1.53-8,1.42-15.47.69ZM63.47,51.25c1.68-1.73,4.87-2.43,9.26-2.11a5.28,5.28,0,0,1,1.73.91c2.43,1.87,6.75,7.65,8.36,25.32a3.45,3.45,0,0,0,3.44,3.14h.32a3.45,3.45,0,0,0,3.12-3.75c-1-10.48-3-18.46-6-24l.26,0c18.45,3,32.05,5,40,3.35l-6.39,65.06a246.06,246.06,0,0,1-28.89-2.38l-26.73-60C61.81,55.9,61.68,53.1,63.47,51.25Zm16.92,64a32.74,32.74,0,0,1-4.72-1.44,27.28,27.28,0,0,1,3.55-1.18ZM56.1,98.13H72.74l3.64,8.16c-4.88,1.44-9.08,3.57-9.08,7.52,0,9.92,34.05,12,52.78,12.4.08,0,.15.06.23.07h.34c.12,0,.23-.05.36-.06,2.75,0,5.15.06,7,.06,1.3,0,2.87,0,4.64,0h0c17.69-.22,56-1.93,56-12.45,0-4-4.22-6.1-9.16-7.54l2.58-8.14H199.9l27.82,35H28.28ZM231.43,222.42H24.57V140H231.43Z"/><path class="cls-1" d="M141.79,68.89a3.48,3.48,0,0,0,4-2.86l.72-4.42a3.45,3.45,0,1,0-6.82-1.1l-.72,4.41A3.47,3.47,0,0,0,141.79,68.89Z"/></svg>