<?xml version="1.0" ?><svg data-name="Layer 1" id="Layer_1" viewBox="0 0 256 256" xmlns="http://www.w3.org/2000/svg"><defs><style>.cls-1{fill:#787878;}</style></defs><title/><path class="cls-1" d="M128,159c-5.23,0-10.46.11-15.64.31l25.5-31.11s0-.08.06-.11L164.42,102l15.8-13.62c.13-.1.24-.2.35-.3l.1-.08s0-.08.08-.11.35-.34.49-.52h0L210.36,49a19.36,19.36,0,0,0-30.83-23.42L150.41,63.92h0a5.43,5.43,0,0,0-.42.68l0,0v0a4.11,4.11,0,0,0-.28.6L140.84,84l-18.2,32.84L91.81,160.68c-36.47,3.59-66.06,12.73-66.06,27.07v21.5c0,18.9,51.44,28.8,102.25,28.8s102.25-9.9,102.25-28.8v-21.5C230.25,168.85,178.81,159,128,159Zm0,6.9c59.07,0,95.34,12.75,95.34,21.89,0,2.15-2,4.49-5.84,6.82-18.4-9.31-54.09-14.12-89.5-14.12-11.6,0-23.22.52-34.26,1.54l12.73-15.53C113.26,166.08,120.44,165.86,128,165.86Zm-3.26,43.75a9.21,9.21,0,0,1,1.88-2.71,3.45,3.45,0,0,0-4.58-5.17,15,15,0,0,0-4.46,7.77c-32.16-.85-56.59-5.53-70.82-11a138.55,138.55,0,0,1,23.75-6.36,3.4,3.4,0,0,0,1.31,2.74l4.35,3.31a3.46,3.46,0,0,0,4.76-.56l6.6-8A349.56,349.56,0,0,1,128,187.36c37.31,0,65.51,5.09,81.24,11.14-15.73,6.05-43.93,11.14-81.24,11.14C126.9,209.64,125.83,209.62,124.74,209.61ZM95.63,167.25c.46,0,.9-.09,1.36-.12l-9,10.94ZM160.24,83a39.67,39.67,0,0,0,9.4,5.38l-9.57,8.24c-1-.06-3.78-.89-7.41-3.65s-5.18-5.24-5.5-6.16l5.35-11.37A40.87,40.87,0,0,0,160.24,83ZM148.48,98.45a30.74,30.74,0,0,0,6,3.61l-19.63,19.32-4.8-3.65,13.36-24.1A30.84,30.84,0,0,0,148.48,98.45ZM185,29.77a12.45,12.45,0,0,1,19.83,15.06L176,82.84c-1.43.18-6-1.13-11.57-5.36s-8.07-8.29-8.27-9.71Zm-58.69,93.82,3.9,3L103,159.77c-.75,0-1.5.09-2.24.15ZM86.52,168.2,75.21,184.28c-14.95,2.36-27.84,5.8-36.71,10.29-3.82-2.33-5.84-4.67-5.84-6.82C32.66,181,52.43,172.3,86.52,168.2ZM128,231.14c-59.07,0-95.34-12.75-95.34-21.89,0-2.15,2-4.49,5.84-6.82,16.72,8.46,47.7,13.2,79.79,14a17.06,17.06,0,0,0,4.93,6.62,3.48,3.48,0,0,0,2.25.83,3.45,3.45,0,0,0,2.24-6.08,17,17,0,0,1-1.28-1.25H128c35.41,0,71.1-4.8,89.5-14.11,3.82,2.33,5.84,4.67,5.84,6.82C223.34,218.39,187.07,231.14,128,231.14Z"/><path class="cls-1" d="M104.65,198.12c-4.91.64-6.22-.81-6.38-1a3.45,3.45,0,0,0-6.41,2.56c.22.62,2.23,5.53,10.51,5.53a24.78,24.78,0,0,0,3.18-.22,3.45,3.45,0,0,0-.9-6.85Z"/><path class="cls-1" d="M136.91,203a3.46,3.46,0,0,0,4.76-1.07l2.15-3.38a3.46,3.46,0,0,0-5.84-3.7l-2.14,3.38A3.45,3.45,0,0,0,136.91,203Z"/><path class="cls-1" d="M120.15,190.16l-3.67,1.62a3.45,3.45,0,0,0,2.79,6.32l3.67-1.62a3.45,3.45,0,0,0-2.79-6.32Z"/><path class="cls-1" d="M157.66,198.6c.39-.15,9.4-3.53,12.06,2.85a3.46,3.46,0,1,0,6.38-2.66c-4.22-10.11-15.56-8.75-21-6.62a3.45,3.45,0,0,0,2.52,6.43Z"/><path class="cls-1" d="M104.78,217.59a3.46,3.46,0,0,0-.47,6.9,10.41,10.41,0,0,1,7,2.91A3.45,3.45,0,0,0,116.6,223C116.2,222.51,112.42,218.12,104.78,217.59Z"/><path class="cls-1" d="M149.92,220.1a3.45,3.45,0,0,0-5.81,3.74l1.47,2.29a3.45,3.45,0,1,0,5.81-3.74Z"/><path class="cls-1" d="M88.92,217.59H86.17a3.45,3.45,0,1,0,0,6.9h2.75a3.45,3.45,0,1,0,0-6.9Z"/></svg>