<?xml version="1.0" ?><svg data-name="Layer 1" id="Layer_1" viewBox="0 0 256 256" xmlns="http://www.w3.org/2000/svg"><defs><style>.cls-1{fill:#787878;}</style></defs><title/><path class="cls-1" d="M186.44,46.75h-5a12.36,12.36,0,0,0-3.08-5.21,11.51,11.51,0,0,0,2.82-7.49,3.46,3.46,0,1,0-6.91,0,4.69,4.69,0,0,1-2.33,4,11.65,11.65,0,0,0-2.38-.26,12.39,12.39,0,0,0-2.38.25,4.69,4.69,0,0,1,2.38-8.74,3.46,3.46,0,1,0,0-6.91H77.72a3.46,3.46,0,0,0,0,6.91A4.71,4.71,0,1,1,73,34.05a3.46,3.46,0,1,0-6.91,0,11.62,11.62,0,1,0,22.22-4.71h31.89V202L77,190.59a3.43,3.43,0,0,0-3.77,5.19,9.3,9.3,0,0,0,4.71,14.61,9.46,9.46,0,0,0,2.66.39,9.34,9.34,0,0,0,8.94-6.67,8.94,8.94,0,0,0,.34-3l21,5.53-37,9.76a3.46,3.46,0,0,0,.87,6.8,3.41,3.41,0,0,0,.89-.12l1.41-.37a9.24,9.24,0,0,0,9.17,10.84,9.12,9.12,0,0,0,2.66-.39,9.3,9.3,0,0,0,4.6-14.78l31-8.16,31,8.16a9.32,9.32,0,0,0,4.59,14.78,9.18,9.18,0,0,0,2.67.39,9.24,9.24,0,0,0,9.17-10.84l1.41.37a3.41,3.41,0,0,0,.89.12,3.46,3.46,0,0,0,.87-6.8l-37-9.76,21-5.53a9.15,9.15,0,0,0,.35,3,9.31,9.31,0,0,0,8.93,6.67,9.55,9.55,0,0,0,2.68-.39,9.34,9.34,0,0,0,6.27-11.6,9.13,9.13,0,0,0-1.56-3,3.44,3.44,0,0,0-3.78-5.18l-44.64,11.77v-173H159a11.37,11.37,0,0,0,1.8,12.2,12.36,12.36,0,0,0-3.08,5.21h-5a3.45,3.45,0,0,0-3.46,3.45V88.33a18.52,18.52,0,0,0,16.85,18.38v4.37a3.46,3.46,0,1,0,6.91,0v-4.37A18.52,18.52,0,0,0,189.9,88.33V50.2A3.45,3.45,0,0,0,186.44,46.75ZM88.28,225.39a2.4,2.4,0,0,1-1.44,1.17,2.42,2.42,0,1,1-1.38-4.64,2.35,2.35,0,0,1,.69-.1,2.42,2.42,0,0,1,2.13,3.57Zm76.61-.46a2.42,2.42,0,1,1-1.63-3,2.38,2.38,0,0,1,1.44,1.16A2.41,2.41,0,0,1,164.89,224.93Zm-82-22.79a2.42,2.42,0,0,1-3,1.63,2.4,2.4,0,0,1-1.44-1.17A2.42,2.42,0,0,1,80.57,199a2.29,2.29,0,0,1,.68.1A2.42,2.42,0,0,1,82.88,202.14Zm86,1.63a2.42,2.42,0,0,1-3-1.63,2.36,2.36,0,0,1,.19-1.84,2.42,2.42,0,0,1,3.28-1,2.38,2.38,0,0,1,1.16,1.44h0A2.42,2.42,0,0,1,168.85,203.77ZM160.68,53.66a3.46,3.46,0,0,0,3.46-3.46,5.44,5.44,0,0,1,3-4.82,11.3,11.3,0,0,0,5,0,5.45,5.45,0,0,1,3,4.82,3.45,3.45,0,0,0,3.45,3.46H183v21.5a60.64,60.64,0,0,1-26.78,0V53.66ZM183,88.33A11.67,11.67,0,0,1,171.33,100h-3.46a11.67,11.67,0,0,1-11.66-11.65V82.27a66.21,66.21,0,0,0,13.37,1.34A66,66,0,0,0,183,82.24v6.09Z"/></svg>