<?xml version="1.0" ?><svg data-name="Layer 1" id="Layer_1" viewBox="0 0 256 256" xmlns="http://www.w3.org/2000/svg"><defs><style>.cls-1{fill:#787878;}</style></defs><title/><path class="cls-1" d="M128,46.46a3.45,3.45,0,0,0-3.45,3.46V62.64a3.45,3.45,0,1,0,6.9,0V49.92A3.45,3.45,0,0,0,128,46.46Z"/><path class="cls-1" d="M141.49,46.46A3.45,3.45,0,0,0,138,49.92V62.64a3.46,3.46,0,1,0,6.91,0V49.92A3.46,3.46,0,0,0,141.49,46.46Z"/><path class="cls-1" d="M155,46.46a3.46,3.46,0,0,0-3.46,3.46V62.64a3.46,3.46,0,1,0,6.91,0V49.92A3.45,3.45,0,0,0,155,46.46Z"/><path class="cls-1" d="M168.48,46.46A3.45,3.45,0,0,0,165,49.92V62.64a3.45,3.45,0,1,0,6.9,0V49.92A3.45,3.45,0,0,0,168.48,46.46Z"/><path class="cls-1" d="M114.51,46.46a3.46,3.46,0,0,0-3.46,3.46V62.64a3.46,3.46,0,1,0,6.91,0V49.92A3.46,3.46,0,0,0,114.51,46.46Z"/><path class="cls-1" d="M101,46.46a3.45,3.45,0,0,0-3.45,3.46V62.64a3.46,3.46,0,1,0,6.91,0V49.92A3.46,3.46,0,0,0,101,46.46Z"/><path class="cls-1" d="M87.52,46.46a3.46,3.46,0,0,0-3.46,3.46V62.64a3.46,3.46,0,1,0,6.91,0V49.92A3.45,3.45,0,0,0,87.52,46.46Z"/><path class="cls-1" d="M190.22,71.26h-4.83V37.85a3.45,3.45,0,0,0-3.45-3.46H170.49V20.5A3.45,3.45,0,0,0,167,17H89a3.45,3.45,0,0,0-3.45,3.46V34.39H74.06a3.45,3.45,0,0,0-3.45,3.46V71.26H65.78a3.45,3.45,0,0,0,0,6.9h3.08v15a3.45,3.45,0,0,0,3.46,3.45h7.57V235.5A3.46,3.46,0,0,0,83.35,239h89.3a3.46,3.46,0,0,0,3.46-3.46V78.16h14.11a3.45,3.45,0,0,0,0-6.9ZM92.41,24h71.17V34.39H92.41ZM75.77,89.75V78.16h4.12V89.75Zm93.43,2.48H101a3.45,3.45,0,0,0-3.45,3.46v121a3.45,3.45,0,0,0,3.45,3.46H169.2v11.86H86.8V78.16h82.4Zm-.15,6.91V213.28H104.47V99.14Zm3.6-27.88H77.52v-30h101v30Z"/></svg>