<?xml version="1.0" ?><svg data-name="Layer 1" id="Layer_1" viewBox="0 0 256 256" xmlns="http://www.w3.org/2000/svg"><defs><style>.cls-1{fill:#787878;}</style></defs><title/><path class="cls-1" d="M128,217.62c-54.7,0-96.29-32.86-101.14-79.92a3.46,3.46,0,0,1,6.88-.71C38.21,180.4,77,210.71,128,210.71S217.79,180.4,222.26,137a3.46,3.46,0,0,1,6.88.71C224.29,184.76,182.7,217.62,128,217.62Z"/><path class="cls-1" d="M225.73,129.52a3.46,3.46,0,0,1-3.43-3.08c-4.54-41.92-67.59-81.15-94.3-81.15-23.91,0-89.61,38.58-94.3,81.15a3.46,3.46,0,1,1-6.87-.75C31.8,80.59,99.4,38.38,128,38.38c29.42,0,96.19,41.31,101.17,87.31a3.45,3.45,0,0,1-3.06,3.81Z"/><path class="cls-1" d="M167.85,76.33a3.41,3.41,0,0,1-1.94-.6C151,65.6,136.48,59.55,127,59.55c-8.78,0-22.59,5.69-36.95,15.23A3.46,3.46,0,1,1,86.24,69C101.91,58.61,116.78,52.64,127,52.64c11,0,26.57,6.34,42.79,17.38a3.45,3.45,0,0,1-2,6.31Z"/><path class="cls-1" d="M45.26,146.45A3.46,3.46,0,0,1,41.81,143V120.41a3.46,3.46,0,0,1,6.91,0V143A3.46,3.46,0,0,1,45.26,146.45Z"/><path class="cls-1" d="M45.26,140.8H20.31a3.46,3.46,0,0,1-3.46-3.46V126.07a3.46,3.46,0,0,1,3.46-3.46h25a3.46,3.46,0,0,1,3.46,3.46v11.27A3.46,3.46,0,0,1,45.26,140.8Zm-21.5-6.91H41.81v-4.37h-18Z"/><path class="cls-1" d="M210.74,146.45a3.46,3.46,0,0,1-3.46-3.46V120.41a3.46,3.46,0,0,1,6.91,0V143A3.46,3.46,0,0,1,210.74,146.45Z"/><path class="cls-1" d="M235.69,140.8H210.74a3.46,3.46,0,0,1-3.46-3.46V126.07a3.46,3.46,0,0,1,3.46-3.46h24.95a3.46,3.46,0,0,1,3.46,3.46v11.27A3.46,3.46,0,0,1,235.69,140.8Zm-21.5-6.91h18.05v-4.37H214.19Z"/><path class="cls-1" d="M128,185.52a41.82,41.82,0,1,1,41.82-41.82A41.87,41.87,0,0,1,128,185.52Zm0-76.73a34.91,34.91,0,1,0,34.91,34.91A34.95,34.95,0,0,0,128,108.79Z"/><path class="cls-1" d="M106.32,137a3.46,3.46,0,0,1-3.12-4.92,27.41,27.41,0,0,1,37.34-12.74,3.46,3.46,0,1,1-3.17,6.14,20.25,20.25,0,0,0-9.37-2.27A20.57,20.57,0,0,0,109.45,135,3.46,3.46,0,0,1,106.32,137Z"/><path class="cls-1" d="M128,171.08a27.41,27.41,0,0,1-27.33-25.65,3.46,3.46,0,0,1,6.9-.43A20.5,20.5,0,0,0,128,164.18a20.8,20.8,0,0,0,3.06-.23,3.45,3.45,0,0,1,1,6.83A27.94,27.94,0,0,1,128,171.08Z"/><path class="cls-1" d="M141.19,167.12a3.45,3.45,0,0,1-1.91-6.33,20.51,20.51,0,0,0,6-28.15,3.45,3.45,0,0,1,5.81-3.74,27.42,27.42,0,0,1-8,37.65A3.44,3.44,0,0,1,141.19,167.12Z"/></svg>