<?xml version="1.0" ?><svg data-name="Layer 1" id="Layer_1" viewBox="0 0 256 256" xmlns="http://www.w3.org/2000/svg"><defs><style>.cls-1{fill:#787878;}</style></defs><title/><path class="cls-1" d="M128,8.22a20.13,20.13,0,0,0-20.1,20.1v71.91a3.47,3.47,0,0,0,.06.64l4.66,24.66,9.11,119.06a3.46,3.46,0,0,0,3.44,3.19h5.72a3.45,3.45,0,0,0,3.44-3.19l9-119.06L148,100.87a3.47,3.47,0,0,0,.06-.64V28.32A20.13,20.13,0,0,0,128,8.22ZM141.19,99.9l-4.63,24.54a2.32,2.32,0,0,0-.05.38L128,236.39l-8.54-111.58a2.35,2.35,0,0,0,0-.37L114.81,99.9V28.32a13.19,13.19,0,1,1,26.38,0Z"/><path class="cls-1" d="M128,25.23a10.4,10.4,0,1,0,10.39,10.39A10.4,10.4,0,0,0,128,25.23Zm0,13.88a3.49,3.49,0,1,1,3.48-3.49A3.48,3.48,0,0,1,128,39.11Z"/><path class="cls-1" d="M135.08,51.54H120.92A3.45,3.45,0,0,0,117.47,55V89.07a3.45,3.45,0,0,0,3.45,3.46h14.16a3.45,3.45,0,0,0,3.45-3.46V55A3.45,3.45,0,0,0,135.08,51.54Zm-3.46,34.08h-7.24V58.45h7.24Z"/></svg>