<?xml version="1.0" ?><svg id="Layer_1_1_" style="enable-background:new 0 0 64 64;" version="1.1" viewBox="0 0 64 64" xml:space="preserve" xmlns="http://www.w3.org/2000/svg" xmlns:xlink="http://www.w3.org/1999/xlink"><path d="M30,21c-3.866,0-7,3.134-7,7c0,0.706,0.107,1.388,0.302,2.03C23.2,30.023,23.103,30,23,30  c-2.209,0-4,1.791-4,4c0,2.209,1.791,4,4,4c2.106,0,3.812-1.632,3.969-3.697C27.888,34.745,28.913,35,30,35c3.866,0,7-3.134,7-7  C37,24.134,33.866,21,30,21z" style="fill:#FFE5CF;"/><path d="M60.944,54.189l-1.064-7.802c-0.668-4.902-0.668-9.872,0-14.774l0.001-0.004  C60.934,23.881,54.799,17,47,17s-13.934,6.881-12.881,14.609l0.001,0.004c0.668,4.902,0.668,9.872,0,14.774l-1.064,7.802  C32.565,57.792,35.365,61,39.001,61H47h7.999C58.635,61,61.435,57.792,60.944,54.189z" style="fill:#BDD3F4;"/><path d="M60.833,53.378C60.215,55.995,57.871,58,54.999,58H47h-7.999c-2.872,0-5.216-2.005-5.834-4.622  l-0.111,0.812C32.565,57.792,35.365,61,39.001,61H47h7.999c3.636,0,6.436-3.208,5.945-6.811L60.833,53.378z" style="fill:#B0CBF4;"/><path d="M34.119,31.609l0.001,0.004c0.668,4.902,0.668,9.872,0,14.774L33.355,52h27.291l-0.765-5.613  c-0.668-4.902-0.668-9.872,0-14.774l0.001-0.004c0.168-1.234,0.135-2.442-0.041-3.609H34.161  C33.984,29.167,33.951,30.374,34.119,31.609z" style="fill:#FFC885;"/><path d="M27.028,47.569l-5.869,1.174c-0.849,0.17-1.723,0.17-2.572,0l-5.869-1.174  C8.659,46.757,4.873,49.861,4.873,54h30C34.873,49.861,31.086,46.757,27.028,47.569z" style="fill:#FFE5CF;"/><path d="M43.873,10v7.296C44.755,17.105,45.672,17,46.617,17h0.512c0.945,0,1.861,0.105,2.744,0.296V10  H43.873z" style="fill:#FFFFFF;"/><path d="M49.873,3h-12c-1.105,0-2,0.895-2,2v2h6v3h2h6h2V5C51.873,3.895,50.977,3,49.873,3z" style="fill:#BDD3F4;"/><rect height="7" style="fill:#4A81D4;" width="32" x="3.873" y="54"/><circle cx="8.873" cy="38" r="5" style="fill:#FFE5CF;"/><circle cx="13.873" cy="23" r="2" style="fill:#FFE5CF;"/><circle cx="11.873" cy="12" r="2" style="fill:#FFE5CF;"/><polygon points="49,44 49,41 52,41 52,37 49,37 49,34 45,34 45,37 42,37 42,41 45,41 45,44 " style="fill:#4A81D4;"/><line style="fill:#4A81D4;" x1="3.873" x2="35.873" y1="61" y2="61"/><rect height="3" style="fill:#3977D4;" width="32" x="3.873" y="58"/><path d="M36.168,20.749c-2.628,3.011-3.829,7.006-3.298,10.966c0.001,0.011,0.003,0.022,0.004,0.033  c0.657,4.812,0.657,9.692,0,14.504l1.982,0.271c0.68-4.982,0.681-10.034,0.004-15.017c-0.002-0.011-0.003-0.021-0.004-0.032  c-0.113-0.827-0.134-1.656-0.074-2.474h24.181c0.06,0.81,0.04,1.63-0.07,2.449c-0.002,0.009-0.003,0.019-0.005,0.029  c-0.68,4.991-0.68,10.053,0,15.044L59.5,51H38.873v2h20.899l0.181,1.325c0.195,1.431-0.237,2.875-1.187,3.963  C57.816,59.376,56.443,60,54.999,60H38.746v2h16.253c2.021,0,3.944-0.874,5.273-2.397c1.33-1.523,1.936-3.545,1.663-5.549  l-1.064-7.802c-0.655-4.804-0.656-9.676-0.004-14.479c0.002-0.01,0.003-0.019,0.005-0.029c0.541-3.97-0.659-7.977-3.294-10.995  c-1.792-2.053-4.134-3.492-6.705-4.214V11h1c0.553,0,1-0.448,1-1V5c0-1.654-1.346-3-3-3h-12c-1.654,0-3,1.346-3,3v2  c0,0.552,0.447,1,1,1h5v2c0,0.552,0.447,1,1,1h1v5.535C40.302,17.257,37.96,18.696,36.168,20.749z M56.071,22.064  c1.251,1.433,2.108,3.131,2.559,4.936H35.116c0.45-1.805,1.308-3.503,2.559-4.936C39.929,19.481,43.188,18,46.617,18h0.512  C50.558,18,53.816,19.481,56.071,22.064z M36.873,6V5c0-0.551,0.448-1,1-1h12c0.552,0,1,0.449,1,1v4h-8V8h3V6h-4H36.873z M44.873,11  h4v5.121C48.297,16.048,47.716,16,47.129,16h-0.512c-0.587,0-1.168,0.048-1.744,0.121V11z"/><path d="M2.873,61c0,0.552,0.447,1,1,1h32c0.553,0,1-0.448,1-1v-7c0-0.552-0.447-1-1-1H35.8c-0.25-1.889-1.197-3.618-2.694-4.845  c-1.758-1.441-4.043-2.013-6.274-1.566l-5.869,1.174c-0.723,0.145-1.457,0.145-2.18,0l-5.869-1.174  c-2.232-0.448-4.517,0.125-6.274,1.566C5.142,49.382,4.196,51.111,3.946,53H3.873c-0.553,0-1,0.448-1,1V61z M34.873,60h-30v-5h30V60  z M7.907,49.702c1.292-1.061,2.972-1.481,4.614-1.152l5.869,1.174c0.98,0.196,1.979,0.197,2.965,0l5.869-1.174  c1.644-0.327,3.322,0.093,4.614,1.152c1.03,0.845,1.703,2.013,1.936,3.298H5.971C6.205,51.715,6.877,50.546,7.907,49.702z"/><path d="M2.873,38c0,3.309,2.691,6,6,6s6-2.691,6-6s-2.691-6-6-6S2.873,34.691,2.873,38z M12.873,38c0,2.206-1.794,4-4,4  s-4-1.794-4-4s1.794-4,4-4S12.873,35.794,12.873,38z"/><path d="M21.873,28c0,0.364,0.024,0.727,0.074,1.086c-2.316,0.436-4.074,2.474-4.074,4.914c0,2.757,2.243,5,5,5v-2  c-1.654,0-3-1.346-3-3c0-1.65,1.339-2.993,3.033-2.993c0.005,0,0.01,0,0.014,0c0.059,0.008,0.117,0.015,0.177,0.02  c0.323,0.025,0.649-0.113,0.856-0.371c0.207-0.257,0.273-0.6,0.178-0.916c-0.171-0.566-0.258-1.151-0.258-1.741c0-3.309,2.691-6,6-6  c1.234,0,2.42,0.372,3.428,1.075l1.145-1.641C33.1,20.496,31.519,20,29.873,20C25.462,20,21.873,23.589,21.873,28z"/><path d="M10.873,23c0,1.654,1.346,3,3,3s3-1.346,3-3s-1.346-3-3-3S10.873,21.346,10.873,23z M14.873,23c0,0.551-0.448,1-1,1  s-1-0.449-1-1s0.448-1,1-1S14.873,22.449,14.873,23z"/><path d="M11.873,9c-1.654,0-3,1.346-3,3s1.346,3,3,3s3-1.346,3-3S13.527,9,11.873,9z M11.873,13c-0.552,0-1-0.449-1-1s0.448-1,1-1  s1,0.449,1,1S12.425,13,11.873,13z"/><path d="M49,33h-4c-0.553,0-1,0.448-1,1v2h-2c-0.553,0-1,0.448-1,1v4c0,0.552,0.447,1,1,1h2v2c0,0.552,0.447,1,1,1h4  c0.553,0,1-0.448,1-1v-2h2c0.553,0,1-0.448,1-1v-4c0-0.552-0.447-1-1-1h-2v-2C50,33.448,49.553,33,49,33z M51,38v2h-2  c-0.553,0-1,0.448-1,1v2h-2v-2c0-0.552-0.447-1-1-1h-2v-2h2c0.553,0,1-0.448,1-1v-2h2v2c0,0.552,0.447,1,1,1H51z"/></svg>