<?xml version="1.0" ?><svg id="Layer_1_1_" style="enable-background:new 0 0 64 64;" version="1.1" viewBox="0 0 64 64" xml:space="preserve" xmlns="http://www.w3.org/2000/svg" xmlns:xlink="http://www.w3.org/1999/xlink"><path d="M21,12v13.985c0,6.057,4.738,10.887,10.794,10.998C37.963,37.096,43,32.128,43,25.985V12H21z" style="fill:#FFE5CF;"/><path d="M36.804,41H27c-7.732,0-15,0-15,14v6h19.804H32h20v-6C52,41,44.536,41,36.804,41z" style="fill:#005FAC;"/><path d="M52,62H12c-0.552,0-1-0.448-1-1v-6c0-15,8.134-15,16-15h9.804C44.396,40,53,40,53,55v6C53,61.552,52.552,62,52,62z M13,60  h38v-5c0-13-6.265-13-14.196-13H27c-7.822,0-14,0-14,13V60z"/><path d="M36.804,41H27c-7.732,0-15,0-15,14v3c0-14,7.268-14,15-14h9.804C44.536,44,52,44,52,58v-3  C52,41,44.536,41,36.804,41z" style="fill:#006CC4;"/><path d="M32,21.985c-2,0-8,2-8,2v9.548c0.862,0.912,1.863,1.691,3,2.264v-0.022v0.022  c1.438,0.725,3.059,1.154,4.794,1.186c1.878,0.034,3.648-0.407,5.206-1.204v-0.004v0.004c1.129-0.578,2.139-1.348,3-2.262v-9.532  C40,23.985,34,21.985,32,21.985z" style="fill:#BDD3F4;"/><path d="M37,35.778c-1.558,0.797-3.328,1.239-5.206,1.204c-1.735-0.032-3.356-0.462-4.794-1.186v4.188  c0,2.761,2.239,5,5,5c2.413,0,4.427-1.71,4.896-3.984c-0.031,0-0.062,0-0.092,0c0.031,0,0.062,0,0.092,0  C36.964,40.672,37,40.333,37,39.985V35.778z" style="fill:#FFE5CF;"/><path d="M44.5,22.985c1.381,0,2.5-1.119,2.5-2.5v0c0-1.381-1.119-2.5-2.5-2.5H43v4v1H44.5z" style="fill:#FFE5CF;"/><path d="M21,17.985h-1.5c-1.381,0-2.5,1.119-2.5,2.5v0c0,1.381,1.119,2.5,2.5,2.5H21v-1V17.985z" style="fill:#FFE5CF;"/><circle cx="27" cy="19.985" r="1" style="fill:#FFFFFF;"/><circle cx="37" cy="19.985" r="1" style="fill:#FFFFFF;"/><path d="M38,3H19v5c0,2.761,2.239,5,5,5h19V8C43,5.239,40.761,3,38,3z" style="fill:#523C00;"/><path d="M27,21.734c-0.965,0-1.75-0.785-1.75-1.75s0.785-1.75,1.75-1.75s1.75,0.785,1.75,1.75S27.965,21.734,27,21.734z M27,19.734  c-0.138,0-0.25,0.112-0.25,0.25c0,0.275,0.5,0.275,0.5,0C27.25,19.847,27.138,19.734,27,19.734z"/><path d="M37,21.734c-0.965,0-1.75-0.785-1.75-1.75s0.785-1.75,1.75-1.75s1.75,0.785,1.75,1.75S37.965,21.734,37,21.734z M37,19.734  c-0.138,0-0.25,0.112-0.25,0.25c0,0.275,0.5,0.275,0.5,0C37.25,19.847,37.138,19.734,37,19.734z"/><path d="M37.999,40.003c0-0.006,0.001-0.012,0.001-0.018v-3.617c0.863-0.501,1.675-1.102,2.407-1.82  C42.724,32.273,44,29.231,44,25.984v-2h0.5c1.93,0,3.5-1.57,3.5-3.5s-1.57-3.5-3.5-3.5H44V13V8c0-3.309-2.691-6-6-6H19  c-0.552,0-1,0.448-1,1v5c0,1.771,0.776,3.36,2,4.46v4.525h-0.5c-1.93,0-3.5,1.57-3.5,3.5s1.57,3.5,3.5,3.5H20v2  c0,4.492,2.394,8.361,6,10.419v3.581c0,0.006,0.001,0.011,0.001,0.017C18.46,40.027,11,40.635,11,55v6c0,0.552,0.448,1,1,1h40  c0.552,0,1-0.448,1-1v-6C53,40.782,45.27,40.041,37.999,40.003z M39,33.125c-1.93,1.892-4.458,2.937-7.188,2.857  c-2.673-0.049-5.059-1.116-6.812-2.826V24.71c1.968-0.63,5.669-1.726,7-1.726c1.33,0,5.031,1.096,7,1.726V33.125z M41,30.329v-5.81  l1-0.667v2.132C42,27.518,41.647,28.991,41,30.329z M44.5,18.984c0.827,0,1.5,0.673,1.5,1.5s-0.673,1.5-1.5,1.5H44v-3H44.5z M20,4  h18c2.206,0,4,1.794,4,4v4H24c-2.206,0-4-1.794-4-4V4z M24,14h18v7.449l-2.15,1.433c-1.532-0.497-6.016-1.898-7.85-1.898  s-6.318,1.401-7.85,1.898L22,21.449V13.65C22.627,13.872,23.298,14,24,14z M19.5,21.984c-0.827,0-1.5-0.673-1.5-1.5  s0.673-1.5,1.5-1.5H20v3H19.5z M22,23.853l1,0.667v5.847c-0.636-1.321-1-2.803-1-4.382V23.853z M31.775,37.982  c0.076,0.001,0.152,0.002,0.228,0.002c1.385,0,2.728-0.246,3.997-0.694v2.694c0,2.206-1.794,4-4,4s-4-1.794-4-4v-2.677  C29.182,37.717,30.447,37.958,31.775,37.982z M51,60h-7v-7h-2v7H22v-7h-2v7h-7v-5c0-12.641,5.842-12.99,13.356-13  c0.831,2.318,3.044,3.984,5.644,3.984c2.6,0,4.813-1.666,5.644-3.984C45.173,42.017,51,42.463,51,55V60z"/></svg>