<?xml version="1.0" ?><svg id="Layer_1_1_" style="enable-background:new 0 0 64 64;" version="1.1" viewBox="0 0 64 64" xml:space="preserve" xmlns="http://www.w3.org/2000/svg" xmlns:xlink="http://www.w3.org/1999/xlink"><circle cx="45" cy="19" r="12" style="fill:#7CA6E6;"/><path d="M3,56c0,2.761,2.239,5,5,5s5-2.239,5-5v-9H3V56z" style="fill:#D64528;"/><rect height="25" style="fill:#FFFFFF;" width="10" x="3" y="22"/><polygon points="13,11 14,11 14,3 10,3 10,11 " style="fill:#4A81D4;"/><rect height="11" style="fill:#D64528;" width="10" x="3" y="11"/><path d="M45,61c2.209,0,4-1.791,4-4V40h-8v17C41,59.209,42.791,61,45,61z" style="fill:#4A81D4;"/><path d="M45,3c-8.837,0-16,7.163-16,16s7.163,16,16,16s16-7.163,16-16S53.837,3,45,3z M45,31  c-6.627,0-12-5.373-12-12c0-6.627,5.373-12,12-12s12,5.373,12,12C57,25.627,51.627,31,45,31z" style="fill:#4A81D4;"/><rect height="8" style="fill:#4A81D4;" width="4" x="6" y="3"/><polygon points="6,11 6,3 2,3 2,11 3,11 " style="fill:#4A81D4;"/><polygon points="18,15 18,24 23,19 " style="fill:#C43F25;"/><polygon points="18,29 18,38 23,33 " style="fill:#C43F25;"/><polygon points="18,52 23,47 18,43 " style="fill:#C43F25;"/><path d="M48.536,15.464C47.631,14.56,46.381,14,45,14c-1.381,0-2.631,0.56-3.536,1.464  C40.56,16.369,40,17.619,40,19c0,1.381,0.56,2.631,1.464,3.536C42.369,23.44,43.619,24,45,24c1.381,0,2.631-0.56,3.536-1.464  C49.44,21.631,50,20.381,50,19C50,17.619,49.44,16.369,48.536,15.464z" style="fill:#D64528;"/><path d="M48.536,19.536C47.631,20.44,46.381,21,45,21c-1.381,0-2.631-0.56-3.536-1.464  c-0.56-0.56-0.965-1.262-1.21-2.036C40.104,17.976,40,18.474,40,19c0,1.381,0.56,2.631,1.464,3.536C42.369,23.44,43.619,24,45,24  c1.381,0,2.631-0.56,3.536-1.464C49.44,21.631,50,20.381,50,19c0-0.526-0.104-1.024-0.254-1.5  C49.501,18.273,49.095,18.976,48.536,19.536z" style="fill:#C43F25;"/><circle cx="43" cy="17" r="1" style="fill:#ED5D40;"/><path d="M8,58c-2.761,0-5-2.239-5-5v3c0,2.761,2.239,5,5,5s5-2.239,5-5v-3C13,55.761,10.761,58,8,58z" style="fill:#C43F25;"/><path d="M45,35c-1.384,0-2.719-0.194-4-0.524V40h8v-5.524C47.719,34.806,46.384,35,45,35z" style="fill:#103369;"/><path d="M45,58c-2.209,0-4-1.791-4-4v3c0,2.209,1.791,4,4,4s4-1.791,4-4v-3C49,56.209,47.209,58,45,58z" style="fill:#4676BC;"/><path d="M45,2c-9.374,0-17,7.626-17,17c0,7.634,5.059,14.107,12,16.247V57c0,2.757,2.243,5,5,5s5-2.243,5-5V35.247  c6.941-2.14,12-8.613,12-16.247C62,9.626,54.374,2,45,2z M45,60c-1.654,0-3-1.346-3-3V41h6v16C48,58.654,46.654,60,45,60z M48,39h-6  v-3.281C42.976,35.893,43.975,36,45,36s2.024-0.107,3-0.281V39z M45,34c-8.271,0-15-6.729-15-15S36.729,4,45,4s15,6.729,15,15  S53.271,34,45,34z"/><path d="M45,6c-7.168,0-13,5.832-13,13s5.832,13,13,13s13-5.832,13-13S52.168,6,45,6z M45,30c-6.065,0-11-4.935-11-11S38.935,8,45,8  s11,4.935,11,11S51.065,30,45,30z"/><path d="M2,56c0,3.309,2.691,6,6,6s6-2.691,6-6V12c0.553,0,1-0.448,1-1V3c0-0.552-0.447-1-1-1h-4H2C1.447,2,1,2.448,1,3v8  c0,0.552,0.447,1,1,1V56z M4,23h8v23H4V23z M8,60c-2.206,0-4-1.794-4-4v-8h8v8C12,58.206,10.206,60,8,60z M13,10h-2V4h2V10z M9,4v6  H7V4H9z M3,4h2v6H3V4z M10,12h2v9H4v-9H10z"/><rect height="2" width="6" x="5" y="29"/><rect height="2" width="6" x="5" y="33"/><path d="M49.885,15.529l0.822-0.822l-1.414-1.414l-0.822,0.822C47.749,13.6,46.909,13.244,46,13.09V11h-2v2.09  c-0.909,0.154-1.749,0.51-2.471,1.025l-0.822-0.822l-1.414,1.414l0.822,0.822C39.6,16.251,39.244,17.091,39.09,18H37v2h2.09  c0.154,0.909,0.51,1.749,1.025,2.471l-0.822,0.822l1.414,1.414l0.822-0.822C42.251,24.4,43.091,24.756,44,24.91V27h2v-2.09  c0.909-0.154,1.749-0.51,2.471-1.025l0.822,0.822l1.414-1.414l-0.822-0.822C50.4,21.749,50.756,20.909,50.91,20H53v-2h-2.09  C50.756,17.091,50.4,16.251,49.885,15.529z M49,19c0,2.206-1.794,4-4,4s-4-1.794-4-4s1.794-4,4-4S49,16.794,49,19z"/><rect height="1" width="2" x="43" y="20"/><rect height="1" width="2" x="45" y="17"/><path d="M17.566,14.099C17.221,14.265,17,14.616,17,15v9c0,0.404,0.243,0.769,0.617,0.924C17.741,24.975,17.871,25,18,25  c0.26,0,0.516-0.102,0.707-0.293l5-5c0.201-0.201,0.308-0.479,0.291-0.762c-0.016-0.284-0.151-0.548-0.373-0.726l-5-4  C18.324,13.978,17.912,13.932,17.566,14.099z M19,17.081l2.503,2.002L19,21.586V17.081z"/><path d="M23.625,32.219l-5-4c-0.301-0.24-0.713-0.287-1.059-0.121C17.221,28.265,17,28.616,17,29v9c0,0.404,0.243,0.769,0.617,0.924  C17.741,38.975,17.871,39,18,39c0.26,0,0.516-0.102,0.707-0.293l5-5c0.201-0.201,0.308-0.479,0.291-0.762  C23.982,32.661,23.847,32.397,23.625,32.219z M19,35.586v-4.505l2.503,2.002L19,35.586z"/><path d="M18.625,42.219c-0.301-0.241-0.713-0.287-1.059-0.121S17,42.616,17,43v9c0,0.404,0.243,0.769,0.617,0.924  C17.741,52.975,17.871,53,18,53c0.26,0,0.516-0.102,0.707-0.293l5-5c0.201-0.201,0.308-0.479,0.291-0.762  c-0.016-0.284-0.151-0.548-0.373-0.726L18.625,42.219z M19,49.586v-4.505l2.503,2.002L19,49.586z"/></svg>