<?xml version="1.0" ?><svg id="Layer_1_1_" style="enable-background:new 0 0 64 64;" version="1.1" viewBox="0 0 64 64" xml:space="preserve" xmlns="http://www.w3.org/2000/svg" xmlns:xlink="http://www.w3.org/1999/xlink"><circle cx="19" cy="17" r="10" style="fill:#FFE5CF;"/><path d="M31.25,22.452c-1.307,0.114-2.281,1.272-2.35,2.582l-1.589,11.454c0-6-7.251-9.489-7.251-9.489  l-6.825-1.838C8.476,26.028,5,30.384,5,35.335C5,44.101,5,61,5,61h20.06V45.632c1.059,1.121,2.174,2.18,3.349,2.943  c1.273,0.827,2.965,0.99,3.98-0.33c1.032-1.342,0.984-9.429,1.132-11.489c0.281-3.898,0.567-7.924,0.536-11.758  C34.045,23.506,32.767,22.32,31.25,22.452z M26.66,39.125l0.651-2.636l-0.379,2.73L26.66,39.125z" style="fill:#FFE5CF;"/><path d="M31.163,21.456c-1.76,0.154-3.163,1.669-3.254,3.441l-0.961,6.927c-1.196-1.987-2.947-3.484-4.332-4.448  C26.908,25.876,30,21.797,30,17c0-6.065-4.935-11-11-11S8,10.935,8,17c0,2.999,1.209,5.719,3.162,7.705  C6.917,26.317,4,30.513,4,35.335V61c0,0.552,0.447,1,1,1h20.06c0.553,0,1-0.448,1-1V48.007c0.583,0.521,1.184,1.003,1.804,1.406  c0.826,0.536,1.701,0.799,2.527,0.799c1.094,0,2.101-0.461,2.791-1.358c0.84-1.092,1.081-4.182,1.253-9.873  c0.027-0.926,0.05-1.693,0.083-2.154c0.268-3.708,0.571-7.91,0.54-11.838c-0.008-0.994-0.435-1.949-1.171-2.618  C33.15,21.703,32.155,21.366,31.163,21.456z M19,8c4.963,0,9,4.038,9,9s-4.037,9-9,9s-9-4.038-9-9S14.037,8,19,8z M32.523,36.685  c-0.035,0.478-0.06,1.275-0.088,2.237c-0.065,2.148-0.237,7.854-0.84,8.713c-0.903,1.179-2.469,0.215-2.643,0.101  c-1.692-1.099-3.274-2.875-4.804-4.593c-0.436-0.489-0.861-0.967-1.275-1.414l-0.085-0.091c-1.825-1.966-3.713-4-4.905-6.307  l-1.777,0.918c1.318,2.55,3.3,4.685,5.217,6.75l0.085,0.092c0.405,0.437,0.821,0.904,1.247,1.383c0.45,0.506,0.92,1.03,1.404,1.552  V60H6V35.335c0-4.337,3.002-8.176,7.041-9.103C14.76,27.346,16.803,28,19,28c0.252,0,0.498-0.021,0.745-0.038  c0.871,0.451,6.528,3.58,6.563,8.482l-0.366,2.638l1.98,0.274l1.976-14.268c0.045-0.853,0.678-1.573,1.438-1.64  c0.441-0.035,0.876,0.104,1.205,0.404s0.512,0.709,0.516,1.154C33.088,28.854,32.788,33.014,32.523,36.685z"/><path d="M23.56,17.5c0.553,0,1-0.448,1-1v-1c0-0.552-0.447-1-1-1s-1,0.448-1,1v1C22.56,17.052,23.007,17.5,23.56,17.5z"/><path d="M57.538,30.87c0.279-0.996,0.084-2.041-0.537-2.868L55.8,26.4l-1.6,1.2l1.201,1.602c0.244,0.325,0.321,0.737,0.211,1.128  c-0.109,0.392-0.39,0.703-0.767,0.854c-1.135,0.454-2.403,0.385-3.482-0.19l-12.893-6.876l-0.941,1.765l12.893,6.876  c0.901,0.48,1.893,0.723,2.887,0.723c0.771,0,1.545-0.146,2.279-0.44C56.549,32.658,57.259,31.866,57.538,30.87z"/><path d="M50.007,35.791L39.474,30.12l-0.947,1.761l10.532,5.671c1.305,0.703,2.22,1.939,2.511,3.391  c0.14,0.702-0.317,1.387-1.019,1.527c-0.382,0.076-0.774-0.022-1.076-0.269S49,41.588,49,41.198V41h-2v0.198  c0,0.992,0.439,1.921,1.207,2.55c0.596,0.489,1.331,0.748,2.086,0.748c0.216,0,0.434-0.021,0.65-0.065  c1.782-0.356,2.942-2.097,2.587-3.88C53.122,38.512,51.838,36.777,50.007,35.791z"/><rect height="2.236" transform="matrix(0.4472 -0.8944 0.8944 0.4472 0.3094 71.5007)" width="2" x="57" y="34.382"/><rect height="2.236" transform="matrix(0.4472 -0.8944 0.8944 0.4472 -5.0571 74.8174)" width="2" x="57" y="40.382"/></svg>