<?xml version="1.0" ?><svg id="Layer_1_1_" style="enable-background:new 0 0 64 64;" version="1.1" viewBox="0 0 64 64" xml:space="preserve" xmlns="http://www.w3.org/2000/svg" xmlns:xlink="http://www.w3.org/1999/xlink"><polygon points="37,30 37,32 37,36 37,38 41,38 41,36 41,31.999 40.999,32 41,31.999 41,30 " style="fill:#EDEDED;"/><rect height="4" style="fill:#EDEDED;" width="23" x="14" y="32"/><circle cx="48" cy="14" r="11" style="fill:#BDD3F4;"/><path d="M22.967,13.344L15,16l6.938,1.982C22.613,16.81,23,15.45,23,14  C23,13.779,22.984,13.561,22.967,13.344z" style="fill:#FFE5CF;"/><polygon points="23,53 22,47 4,47 3,53 5,53 21,53 " style="fill:#FFFFFF;"/><rect height="4" style="fill:#EDEDED;" width="18" x="4" y="43"/><rect height="8" style="fill:#FFFFFF;" width="16" x="5" y="53"/><path d="M30.417,38.792C31.387,38.306,32,37.315,32,36.23c0-2.026-2.046-3.412-3.927-2.659l-2.069,0.828  l2.709,5.245L30.417,38.792z" style="fill:#FFE5CF;"/><path d="M15,3c-4.971,0-9,4.029-9,9v7l9-3l7.967-2.656L24,13v-1C24,7.029,19.971,3,15,3z" style="fill:#EDEDED;"/><circle cx="48" cy="14" r="4" style="fill:#D64528;"/><polygon points="8,19 6.006,28.972 18.811,27.755 20,23 " style="fill:#EDEDED;"/><polygon points="20,23 21.938,17.982 15,16 8,19 " style="fill:#FFFFFF;"/><path d="M26.003,34.399L22,36v-1.376c0-4.4-3.181-8.154-7.52-8.878h0c-3.353-0.559-6.516,0.81-8.474,3.225  C4.761,30.507,4,32.462,4,34.624V43h18l6.713-3.356L26.003,34.399z" style="fill:#FFFFFF;"/><rect height="2" transform="matrix(0.7071 -0.7071 0.7071 0.7071 -8.1543 42.3137)" width="5.657" x="44.172" y="30"/><rect height="2.828" transform="matrix(0.7071 -0.7071 0.7071 0.7071 -14.468 49.0711)" width="2" x="51" y="40.586"/><rect height="5.657" transform="matrix(0.7071 -0.7071 0.7071 0.7071 -12.397 44.0711)" width="2" x="46" y="34.172"/><rect height="2" width="4" x="47" y="33"/><rect height="2" width="2" x="53" y="33"/><rect height="2" width="2" x="15" y="12"/><polygon points="40,13 40,15 43,15 43,14 43,13 "/><path d="M48,2c-6.617,0-12,5.383-12,12c0,5.864,4.23,10.75,9.797,11.788l-3.867,3.867C41.789,29.274,41.43,29,41,29h-4  c-0.552,0-1,0.448-1,1v1H22.322c-0.529-1.367-1.349-2.589-2.393-3.592l1.025-4.099l1.975-4.938c0.028-0.071,0.027-0.146,0.038-0.221  c0.658-1.261,1.021-2.663,1.03-4.096l0.32-0.107C24.725,13.813,25,13.431,25,13v-1c0-5.514-4.486-10-10-10S5,6.486,5,12v7  c0,0.321,0.154,0.623,0.416,0.811C5.588,19.936,5.793,20,6,20c0.106,0,0.213-0.017,0.316-0.051l0.508-0.169l-1.75,8.75  C3.741,30.261,3,32.395,3,34.624v12.293l-0.986,5.918c-0.048,0.29,0.033,0.586,0.223,0.811C2.427,53.871,2.706,54,3,54h1v7  c0,0.552,0.448,1,1,1h16c0.552,0,1-0.448,1-1v-7h1c0.294,0,0.573-0.129,0.763-0.354c0.19-0.225,0.271-0.521,0.223-0.811L23,46.917  v-3.299l7.864-3.932c1.082-0.541,1.818-1.533,2.05-2.686H36v1c0,0.552,0.448,1,1,1h4c0.43,0,0.789-0.275,0.93-0.656l11.363,11.363  l1.414-1.414L42,35.586v-3.173l6.436-6.435c0.873-0.032,1.722-0.157,2.538-0.366l-0.681,0.681l1.414,1.414l2-2l-0.778-0.778  C57.092,23.044,60,18.859,60,14C60,7.383,54.617,2,48,2z M26.807,33l-3.811,1.525c-0.005-0.518-0.051-1.027-0.132-1.525H26.807z   M14.644,24.76c-2.48-0.415-4.991,0.126-7.071,1.474l1.185-5.927l10.047,3.349l-0.607,2.426  C17.135,25.437,15.939,24.976,14.644,24.76z M11.878,19.238l-1.715-0.572l4.86-1.62l5.637,1.611l-1.239,3.096l-2.561-0.854l0,0  L11.878,19.238z M21.412,16.792l-3.03-0.866l3.569-1.19C21.877,15.447,21.696,16.14,21.412,16.792z M15,4c4.411,0,8,3.589,8,8v0.279  L7,17.613V14h6v-2H7C7,7.589,10.589,4,15,4z M7.829,28.52c1.798-1.523,4.163-2.173,6.486-1.787c3.727,0.621,6.463,3.719,6.665,7.451  l-6.451-4.032l-1.06,1.696l8,5c0.27,0.168,0.604,0.199,0.901,0.081l3.16-1.264l1.827,3.538l-5.384,2.692l-8.569-3.808l-0.813,1.827  L17.288,42H5v-7.376C5,32.268,6.031,30.042,7.829,28.52z M21.819,52H4.181l0.666-4h16.306L21.819,52z M5,46v-2h16v2H5z M20,60H6v-6  h14V60z M29.97,37.897l-0.822,0.411l-1.751-3.39l1.047-0.419c0.582-0.233,1.216-0.166,1.736,0.188C30.702,35.039,31,35.602,31,36.23  C31,36.941,30.605,37.58,29.97,37.897z M32.793,35c-0.266-0.791-0.779-1.488-1.49-1.97c-0.017-0.011-0.034-0.019-0.051-0.03H36v2  H32.793z M48,4c2.398,0,4.6,0.85,6.324,2.262l-3.571,3.571C50.229,9.485,49.637,9.231,49,9.101V7h-2v2.101  c-0.637,0.13-1.228,0.384-1.753,0.732l-2.198-2.196l-1.414,1.415l2.198,2.196C43.309,12.038,43,12.983,43,14  c0,1.017,0.309,1.962,0.833,2.753l-3.571,3.571C38.85,18.6,38,16.398,38,14C38,8.486,42.486,4,48,4z M51,14c0,1.654-1.346,3-3,3  c-0.462,0-0.894-0.113-1.285-0.301l3.985-3.985C50.887,13.106,51,13.538,51,14z M45,14c0-1.654,1.346-3,3-3  c0.462,0,0.894,0.113,1.285,0.301l-3.985,3.985C45.113,14.894,45,14.462,45,14z M40,37h-2v-6h2V37z M48,24  c-2.398,0-4.6-0.85-6.324-2.262l3.571-3.571c0.524,0.348,1.116,0.602,1.753,0.732V21h2v-2.101c0.637-0.13,1.229-0.384,1.753-0.732  l2.197,2.197l1.414-1.414l-2.197-2.197c0.348-0.524,0.602-1.116,0.732-1.753H55v-2h-2.101c-0.13-0.637-0.384-1.229-0.732-1.753  l3.571-3.571C57.15,9.4,58,11.602,58,14C58,19.514,53.514,24,48,24z"/></svg>