<?xml version="1.0" ?><svg id="Layer_1_1_" style="enable-background:new 0 0 64 64;" version="1.1" viewBox="0 0 64 64" xml:space="preserve" xmlns="http://www.w3.org/2000/svg" xmlns:xlink="http://www.w3.org/1999/xlink"><path d="M35,3v19h14.8l3.2,4l3.2-4H61V3H35z" style="fill:#BDD3F4;"/><circle cx="48" cy="12" r="4" style="fill:#D64528;"/><circle cx="17" cy="17" r="10" style="fill:#FFE5CF;"/><path d="M29.25,22.452c-1.307,0.114-2.281,1.272-2.35,2.582l-1.589,11.454c0-6-7.251-9.489-7.251-9.489  l-6.825-1.838C6.476,26.028,3,30.384,3,35.335C3,44.101,3,61,3,61h20.06V45.632c1.059,1.121,2.174,2.18,3.349,2.943  c1.273,0.827,2.965,0.99,3.98-0.33c1.032-1.342,0.984-9.429,1.132-11.489c0.281-3.898,0.567-7.924,0.536-11.758  C32.045,23.506,30.767,22.32,29.25,22.452z M24.66,39.125l0.651-2.636l-0.379,2.73L24.66,39.125z" style="fill:#FFE5CF;"/><path d="M24,61V48.007c0.583,0.521,1.184,1.003,1.804,1.406c0.826,0.536,1.701,0.799,2.527,0.799c1.093,0,2.1-0.46,2.791-1.358  c0.841-1.092,1.082-4.182,1.253-9.873c0.028-0.926,0.051-1.693,0.084-2.154c0.267-3.71,0.57-7.917,0.539-11.838  c-0.008-0.995-0.435-1.949-1.171-2.618c-0.735-0.668-1.727-1.003-2.723-0.916c-1.761,0.154-3.164,1.669-3.254,3.441l-0.961,6.927  c-1.196-1.987-2.947-3.484-4.332-4.447C24.848,25.876,27.94,21.797,27.94,17c0-6.065-4.935-11-11-11s-11,4.935-11,11  c0,2.999,1.209,5.719,3.162,7.705c-4.245,1.612-7.162,5.808-7.162,10.63V61c0,0.552,0.448,1,1,1H23C23.552,62,24,61.552,24,61z   M21.231,24.909C21.086,24.63,21,24.323,21,24c0-1.103,0.897-2,2-2c0.42,0,0.809,0.14,1.14,0.377  C23.363,23.414,22.376,24.285,21.231,24.909z M16.94,8c4.962,0,9,4.038,9,9c0,1.298-0.282,2.53-0.779,3.646  C24.523,20.232,23.774,20,23,20c-2.206,0-4,1.794-4,4c0,0.584,0.133,1.143,0.369,1.658C18.595,25.875,17.783,26,16.94,26  c-4.962,0-9-4.038-9-9S11.978,8,16.94,8z M3.94,60V35.335c0-4.337,3.002-8.175,7.041-9.103C12.7,27.346,14.744,28,16.94,28  c0.252,0,0.498-0.021,0.746-0.038c0.87,0.451,6.526,3.579,6.562,8.48l-0.366,2.639l1.981,0.274l1.975-14.269  c0.045-0.852,0.677-1.572,1.438-1.639c0.449-0.036,0.875,0.104,1.204,0.403c0.33,0.3,0.513,0.709,0.517,1.154  c0.03,3.842-0.27,8.005-0.534,11.679c-0.034,0.478-0.059,1.275-0.088,2.237c-0.065,2.148-0.237,7.854-0.839,8.713  c-0.906,1.178-2.468,0.216-2.644,0.101c-1.693-1.1-3.275-2.876-4.805-4.595c-0.435-0.489-0.86-0.966-1.274-1.412l-0.084-0.091  c-1.826-1.966-3.714-4-4.905-6.307l-1.777,0.918c1.317,2.55,3.3,4.685,5.217,6.75l0.084,0.091c0.405,0.437,0.82,0.903,1.246,1.381  c0.451,0.506,0.921,1.032,1.406,1.554V60H3.94z"/><rect height="4.112" transform="matrix(0.2316 -0.9728 0.9728 0.2316 12.5696 76.9606)" width="2" x="54" y="28.468"/><rect height="11.308" transform="matrix(0.2316 -0.9728 0.9728 0.2316 5.3206 61.3553)" width="2" x="40.5" y="21.656"/><rect height="6.308" transform="matrix(0.7926 -0.6097 0.6097 0.7926 -16.9796 35.0782)" width="2" x="42.077" y="39.346"/><rect height="4.92" transform="matrix(0.7925 -0.6099 0.6099 0.7925 -13.1314 29.3052)" width="2" x="35.5" y="31.49"/><rect height="2" width="1" x="43" y="32"/><rect height="2" width="1" x="48" y="36"/><rect height="2" width="1" x="35" y="42"/><rect height="2" width="1" x="54" y="39"/><polygon points="43,12 43,11 40,11 40,13 43,13 "/><path d="M42.293,16.293l1.414,1.414l1.54-1.54c0.524,0.348,1.116,0.602,1.753,0.732V19h2v-2.101c0.637-0.13,1.229-0.384,1.753-0.732  l2.197,2.197l1.414-1.414l-2.197-2.197c0.348-0.524,0.602-1.116,0.732-1.753H55v-2h-2.101c-0.13-0.637-0.384-1.229-0.732-1.753  l1.54-1.54l-1.414-1.414l-1.54,1.54C50.229,7.485,49.637,7.231,49,7.101V5h-2v2.101c-0.637,0.13-1.228,0.384-1.753,0.732  l-2.198-2.196l-1.414,1.415l2.198,2.196C43.309,10.038,43,10.983,43,12c0,1.017,0.309,1.962,0.833,2.753L42.293,16.293z M48,9  c1.654,0,3,1.346,3,3s-1.346,3-3,3s-3-1.346-3-3S46.346,9,48,9z"/><rect height="1" width="2" x="46" y="13"/><rect height="1" width="2" x="48" y="10"/><path d="M61,2H35c-0.552,0-1,0.448-1,1v19c0,0.552,0.448,1,1,1h14.319l2.9,3.625C52.409,26.862,52.696,27,53,27  s0.591-0.138,0.781-0.375l2.9-3.625H61c0.552,0,1-0.448,1-1V3C62,2.448,61.552,2,61,2z M60,21h-3.8  c-0.304,0-0.591,0.138-0.781,0.375L53,24.399l-2.419-3.024C50.391,21.138,50.104,21,49.8,21H36V4h24V21z"/><rect height="2" width="1" x="49" y="30"/><rect height="2" width="1" x="56" y="15"/><rect height="2" width="1" x="57" y="6"/><rect height="2" width="1" x="38" y="15"/><path d="M21.5,17.5c0.552,0,1-0.448,1-1v-1c0-0.552-0.448-1-1-1s-1,0.448-1,1v1C20.5,17.052,20.948,17.5,21.5,17.5z"/></svg>