<?xml version="1.0" ?><svg id="Layer_1_1_" style="enable-background:new 0 0 64 64;" version="1.1" viewBox="0 0 64 64" xml:space="preserve" xmlns="http://www.w3.org/2000/svg" xmlns:xlink="http://www.w3.org/1999/xlink"><polygon points="9,6 9,12 15,12 15,9 15,6 " style="fill:#4A81D4;"/><polygon points="17,12 15,12 9,12 7,12 7,16 17,16 " style="fill:#7CA6E6;"/><path d="M5,42h14c1.105,0,2-0.895,2-2V18c0-1.105-0.895-2-2-2h-2H7H5c-1.105,0-2,0.895-2,2v22  C3,41.105,3.895,42,5,42z" style="fill:#FFFFFF;"/><path d="M19,42c1.105,0,2-0.895,2-2v-2.072c-8.403-0.725-15-7.766-15-16.356V16H5c-1.105,0-2,0.895-2,2v22  c0,1.105,0.895,2,2,2H19z" style="fill:#EDEDED;"/><polygon points="10,32 14,32 14,29 17,29 17,25 14,25 14,22 10,22 10,25 7,25 7,29 10,29 " style="fill:#4A81D4;"/><path d="M60.334,32.468c-1.01-0.448-2.191,0.007-2.639,1.016h0l1.014-2.285  c0.56-1.262-0.009-2.739-1.27-3.299c-0.992-0.44-2.11-0.176-2.818,0.567l1.142-2.953c0.56-1.262-0.009-2.739-1.27-3.299  c-1.262-0.56-2.739,0.009-3.299,1.27l-5.233,12.015l-0.11,0.019l3.517-7.921c0.56-1.262-0.009-2.739-1.27-3.299  c-1.262-0.56-2.739,0.009-3.299,1.271l-4.869,10.968l-0.755-6.695c-0.037-0.813-0.53-1.535-1.274-1.865  c-1.501-0.667-3.165,0.53-3.01,2.166L32,50l-6,12h15.763l4.468-5.158l9.439-8.939l5.681-12.796  C61.799,34.098,61.344,32.917,60.334,32.468z" style="fill:#FFE5CF;"/><rect height="2" transform="matrix(0.9868 -0.1621 0.1621 0.9868 -0.2154 6.1375)" width="4.807" x="35.1" y="3.389"/><rect height="2" transform="matrix(0.9868 -0.1621 0.1621 0.9868 -0.6638 4.3355)" width="8.412" x="22.031" y="5.235"/><rect height="4.031" transform="matrix(0.8104 -0.5858 0.5858 0.8104 -6.9692 22.2768)" width="2" x="29.936" y="19.891"/><rect height="9.214" transform="matrix(0.8103 -0.586 0.586 0.8103 -3.513 17.5607)" width="2" x="24.368" y="9.6"/><rect height="2" transform="matrix(0.9911 -0.1328 0.1328 0.9911 -0.8792 6.4896)" width="7.075" x="44.673" y="8.836"/><rect height="2" transform="matrix(0.9911 -0.1328 0.1328 0.9911 -1.1749 5.0281)" width="8.255" x="32.979" y="10.322"/><rect height="6.328" transform="matrix(0.7953 -0.6062 0.6062 0.7953 -3.7989 27.1148)" width="1.999" x="37.249" y="16.018"/><path d="M60.739,31.554c-0.327-0.146-0.672-0.221-1.019-0.244c0.578-1.694-0.209-3.583-1.876-4.324  c-0.492-0.219-1.007-0.302-1.512-0.288l0.345-0.778c0.782-1.764-0.016-3.836-1.779-4.619c-1.761-0.781-3.835,0.014-4.619,1.779  l-0.548,1.234c-0.335-0.391-0.745-0.714-1.228-0.929c-0.855-0.379-1.807-0.404-2.679-0.067c-0.872,0.336-1.562,0.992-1.94,1.846  l-3.375,7.602l-0.336-2.969c-0.055-1.199-0.771-2.246-1.867-2.733c-1.033-0.458-2.199-0.338-3.116,0.322  c-0.883,0.635-1.364,1.645-1.305,2.722l-2.851,19.589l-5.928,11.856l1.789,0.895l6-12c0.048-0.095,0.08-0.198,0.095-0.303  l2.889-19.856c0.012-0.079,0.014-0.159,0.006-0.239c-0.056-0.591,0.312-0.924,0.473-1.04c0.161-0.115,0.592-0.359,1.136-0.118  c0.4,0.178,0.662,0.56,0.687,1.063l0.724,6.427l-1.918,4.32l1.828,0.812l6.898-15.538c0.162-0.366,0.458-0.647,0.831-0.791  c0.373-0.145,0.781-0.133,1.148,0.029c0.366,0.163,0.646,0.458,0.791,0.832c0.143,0.374,0.134,0.781-0.029,1.146l-0.204,0.459l0,0  l-5.478,12.338L44.6,40.8l5.681-12.795c0,0,0-0.001,0-0.002l1.826-4.111c0.335-0.756,1.224-1.099,1.98-0.762  c0.755,0.335,1.097,1.224,0.762,1.979l-1.62,3.65c-0.001,0.002-0.003,0.004-0.004,0.006l-5.884,13.252l1.828,0.812l5.681-12.796l0,0  l0.205-0.461c0.337-0.752,1.219-1.097,1.977-0.758c0.366,0.163,0.647,0.458,0.792,0.832c0.144,0.374,0.134,0.781-0.029,1.147  l-1.014,2.284c0,0,0,0.001-0.001,0.001l0,0l-4.869,10.968l1.828,0.812l4.87-10.969c0.224-0.503,0.817-0.73,1.32-0.507  c0.504,0.224,0.731,0.816,0.508,1.32l-5.6,12.613l-13.76,13.006l1.371,1.456l13.909-13.148c0.096-0.091,0.173-0.2,0.227-0.32  l5.681-12.795c0.325-0.732,0.346-1.548,0.058-2.295C62.034,32.47,61.473,31.879,60.739,31.554z"/><path d="M7,30h2v2c0,0.552,0.447,1,1,1h4c0.553,0,1-0.448,1-1v-2h2c0.553,0,1-0.448,1-1v-4c0-0.552-0.447-1-1-1h-2v-2  c0-0.552-0.447-1-1-1h-4c-0.553,0-1,0.448-1,1v2H7c-0.553,0-1,0.448-1,1v4C6,29.552,6.447,30,7,30z M8,26h2c0.553,0,1-0.448,1-1v-2  h2v2c0,0.552,0.447,1,1,1h2v2h-2c-0.553,0-1,0.448-1,1v2h-2v-2c0-0.552-0.447-1-1-1H8V26z"/><path d="M5,43h14c1.654,0,3-1.346,3-3V18c0-1.654-1.346-3-3-3h-1v-3c0-0.552-0.447-1-1-1h-1V6c0-0.552-0.447-1-1-1H9  C8.447,5,8,5.448,8,6v5H7c-0.553,0-1,0.448-1,1v3H5c-1.654,0-3,1.346-3,3v22C2,41.654,3.346,43,5,43z M10,7h4v1h-2v2h2v1h-4V7z   M8,13h8v2H8V13z M4,18c0-0.551,0.448-1,1-1h14c0.552,0,1,0.449,1,1v22c0,0.551-0.448,1-1,1H5c-0.552,0-1-0.449-1-1V18z"/></svg>