<?xml version="1.0" ?><svg id="Layer_1_1_" style="enable-background:new 0 0 64 64;" version="1.1" viewBox="0 0 64 64" xml:space="preserve" xmlns="http://www.w3.org/2000/svg" xmlns:xlink="http://www.w3.org/1999/xlink"><path d="M60,14H4c-0.552,0-1,0.448-1,1v38c0,0.552,0.448,1,1,1h56c0.552,0,1-0.448,1-1V15  C61,14.448,60.552,14,60,14z" style="fill:#BDD3F4;"/><rect height="8" style="fill:#4A81D4;" width="28" x="29" y="42"/><rect height="24" style="fill:#FFFFFF;" width="28" x="29" y="18"/><path d="M30,14l-2.709-4.515C27.111,9.184,26.785,9,26.434,9h-3.668c-0.777,0-1.257,0.848-0.858,1.514L24,14  H30z" style="fill:#4A81D4;"/><path d="M24,14l-2.091-3.486l0,0l0,0l-0.617-1.029C21.111,9.184,20.785,9,20.434,9h-3.668  c-0.777,0-1.257,0.848-0.858,1.514L18,14H24z" style="fill:#4A81D4;"/><path d="M15.909,10.514L15.909,10.514L15.909,10.514l-0.617-1.029C15.111,9.184,14.785,9,14.434,9H8  c-0.552,0-1,0.448-1,1v4h11L15.909,10.514z" style="fill:#4A81D4;"/><polygon points="15,18 11,18 11,22 7,22 7,26 11,26 11,30 15,30 15,26 19,26 19,22 15,22 " style="fill:#4A81D4;"/><path d="M46.536,26.464C45.631,25.56,44.381,25,43,25c-1.381,0-2.631,0.56-3.536,1.464  C38.56,27.369,38,28.619,38,30c0,1.381,0.56,2.631,1.464,3.536C40.369,34.44,41.619,35,43,35c1.381,0,2.631-0.56,3.536-1.464  C47.44,32.631,48,31.381,48,30C48,28.619,47.44,27.369,46.536,26.464z" style="fill:#D64528;"/><path d="M46.536,30.536C45.631,31.44,44.381,32,43,32c-1.381,0-2.631-0.56-3.536-1.464  c-0.56-0.56-0.965-1.262-1.21-2.036C38.104,28.976,38,29.474,38,30c0,1.381,0.56,2.631,1.464,3.536C40.369,34.44,41.619,35,43,35  c1.381,0,2.631-0.56,3.536-1.464C47.44,32.631,48,31.381,48,30c0-0.526-0.104-1.024-0.254-1.5  C47.501,29.273,47.095,29.976,46.536,30.536z" style="fill:#C43F25;"/><circle cx="41" cy="28" r="1" style="fill:#ED5D40;"/><path d="M60,13H30.566l-2.418-4.029C27.789,8.372,27.132,8,26.434,8h-3.667c-0.437,0-0.836,0.149-1.17,0.394  C21.26,8.151,20.859,8,20.434,8h-3.667c-0.437,0-0.836,0.149-1.17,0.394C15.26,8.151,14.859,8,14.434,8H8c-1.103,0-2,0.897-2,2v3H4  c-1.103,0-2,0.897-2,2v38c0,1.103,0.897,2,2,2h56c1.103,0,2-0.897,2-2V15C62,13.897,61.103,13,60,13z M26.434,10l1.8,3h-3.668  l-1.8-3l0.001,0H26.434z M20.434,10l1.8,3h-3.668l-1.8-3l0.001,0H20.434z M8,10h6.434l1.8,3H8V10z M4,53V15h56l0.001,38H4z"/><path d="M19,21h-3v-3c0-0.552-0.447-1-1-1h-4c-0.553,0-1,0.448-1,1v3H7c-0.553,0-1,0.448-1,1v4c0,0.552,0.447,1,1,1h3v3  c0,0.552,0.447,1,1,1h4c0.553,0,1-0.448,1-1v-3h3c0.553,0,1-0.448,1-1v-4C20,21.448,19.553,21,19,21z M18,25h-3  c-0.553,0-1,0.448-1,1v3h-2v-3c0-0.552-0.447-1-1-1H8v-2h3c0.553,0,1-0.448,1-1v-3h2v3c0,0.552,0.447,1,1,1h3V25z"/><path d="M38.115,33.471l-0.822,0.822l1.414,1.414l0.822-0.822C40.251,35.4,41.091,35.756,42,35.91V38h2v-2.09  c0.909-0.154,1.749-0.51,2.471-1.025l0.822,0.822l1.414-1.414l-0.822-0.822C48.4,32.749,48.756,31.909,48.91,31H51v-2h-2.09  c-0.154-0.909-0.51-1.749-1.025-2.471l0.822-0.822l-1.414-1.414l-0.822,0.822C45.749,24.6,44.909,24.244,44,24.09V22h-2v2.09  c-0.909,0.154-1.749,0.51-2.471,1.025l-0.822-0.822l-1.414,1.414l0.822,0.822C37.6,27.251,37.244,28.091,37.09,29H35v2h2.09  C37.244,31.909,37.6,32.749,38.115,33.471z M39,30c0-2.206,1.794-4,4-4s4,1.794,4,4s-1.794,4-4,4S39,32.206,39,30z"/><rect height="2" width="1" x="41" y="28"/><rect height="2" width="1" x="44" y="30"/><path d="M57,17H29c-0.553,0-1,0.448-1,1v24v8c0,0.552,0.447,1,1,1h28c0.553,0,1-0.448,1-1v-8V18C58,17.448,57.553,17,57,17z M56,19  v22H30V19H56z M56,49H30v-6h26V49z"/></svg>