<?xml version="1.0" ?><svg id="Layer_1_1_" style="enable-background:new 0 0 64 64;" version="1.1" viewBox="0 0 64 64" xml:space="preserve" xmlns="http://www.w3.org/2000/svg" xmlns:xlink="http://www.w3.org/1999/xlink"><path d="M32,37c-1.744,0-3.386-0.417-4.851-1.139H27v8.21c0,2.761,2.239,5,5,5s5-2.239,5-5v-8.21h-0.149  C35.386,36.583,33.744,37,32,37z" style="fill:#FFE5CF;"/><path d="M40,16.924L38,16c-5.017-1.916-13-4.928-13-4.928l-4,10V26c0,6.075,4.925,11,11,11s11-4.925,11-11  v-8.165C42.133,17.609,41.115,17.297,40,16.924z" style="fill:#FFE5CF;"/><path d="M21,27.072h-1.5c-1.381,0-2.5-1.119-2.5-2.5v0c0-1.381,1.119-2.5,2.5-2.5H21" style="fill:#FFE5CF;"/><path d="M43,27.072h1.5c1.381,0,2.5-1.119,2.5-2.5v0c0-1.381-1.119-2.5-2.5-2.5H43" style="fill:#FFE5CF;"/><path d="M46,43.072h-9v1c0,2.761-2.239,5-5,5s-5-2.239-5-5v-1h-9c-3.314,0-6,2.686-6,6V61h40V49.072  C52,45.758,49.314,43.072,46,43.072z" style="fill:#69A43E;"/><path d="M38,16l2,0.924c1.577,0.528,2.978,0.943,4,1.148h1V16c0-5.379-3.313-10.203-8.333-12.134  c-3.004-1.155-6.33-1.155-9.333,0C22.313,5.797,19,10.621,19,16l1,5.072h1l4-10C25,11.072,32.983,14.084,38,16z" style="fill:#523C00;"/><path d="M18,43.072c-3.314,0-6,2.686-6,6v3c0-3.314,2.686-6,6-6h9v-3H18z" style="fill:#77BA46;"/><path d="M46,43.072h-9v3h9c3.314,0,6,2.686,6,6v-3C52,45.758,49.314,43.072,46,43.072z" style="fill:#77BA46;"/><path d="M34.602,31.606L39,33.072h6c1.105,0,2-0.895,2-2v0c0-1.105-0.895-2-2-2h-6l-5.097,1.699" style="fill:#005FAC;"/><path d="M45,34.072h-6c-0.107,0-0.214-0.017-0.316-0.051l-4.397-1.466l0.322-0.965l-0.388,0.129l-0.633-1.897l5.097-1.699  c0.102-0.034,0.209-0.051,0.316-0.051h6c1.654,0,3,1.346,3,3S46.654,34.072,45,34.072z M39.162,32.072H45c0.551,0,1-0.449,1-1  s-0.449-1-1-1h-5.838l-3,1L39.162,32.072z"/><path d="M32,37c-1.744,0-3.386-0.417-4.851-1.139H27V38l9.02,9.02c0.609-0.828,0.98-1.841,0.98-2.948v-8.21  h-0.149C35.386,36.583,33.744,37,32,37z" style="fill:#E8D0BC;"/><path d="M27,27.322c-1.517,0-2.75-1.233-2.75-2.75h1.5c0,0.689,0.561,1.25,1.25,1.25s1.25-0.561,1.25-1.25h1.5  C29.75,26.088,28.517,27.322,27,27.322z"/><path d="M35.75,33.072h-1.5c0-1.241-1.009-2.25-2.25-2.25s-2.25,1.009-2.25,2.25h-1.5c0-2.068,1.682-3.75,3.75-3.75  S35.75,31.004,35.75,33.072z"/><path d="M37,27.322c-1.517,0-2.75-1.233-2.75-2.75h1.5c0,0.689,0.561,1.25,1.25,1.25s1.25-0.561,1.25-1.25h1.5  C39.75,26.088,38.517,27.322,37,27.322z"/><path d="M46,42.072h-8v-5.619c1.08-0.626,2.061-1.427,2.917-2.381H45c1.654,0,3-1.346,3-3s-1.346-3-3-3h-0.5  c1.93,0,3.5-1.57,3.5-3.5s-1.57-3.5-3.5-3.5H44v-2h1c0.552,0,1-0.448,1-1V16c0-5.751-3.606-11.002-8.974-13.066  c-3.241-1.249-6.812-1.247-10.052,0C21.606,4.998,18,10.249,18,16c0,0.065,0.006,0.13,0.019,0.193l0.972,4.93  C17.304,21.372,16,22.816,16,24.572c0,1.93,1.57,3.5,3.5,3.5h0.675c0.594,3.625,2.768,6.674,5.825,8.419v5.581h-8  c-3.86,0-7,3.14-7,7V61c0,0.552,0.448,1,1,1h40c0.552,0,1-0.448,1-1V49.072C53,45.212,49.86,42.072,46,42.072z M45,30.072  c0.551,0,1,0.449,1,1s-0.449,1-1,1h-5.838l-3-1l3-1H45z M44.5,23.072c0.827,0,1.5,0.673,1.5,1.5s-0.673,1.5-1.5,1.5H44v-3H44.5z   M27.692,4.8c2.778-1.068,5.838-1.069,8.616,0C40.909,6.569,44,11.07,44,16v1.05c-0.883-0.191-2.103-0.547-3.631-1.058l-2.012-0.927  c-5.019-1.917-13.004-4.93-13.004-4.93c-0.508-0.192-1.08,0.058-1.282,0.564l-3.414,8.536L20,15.904  C20.04,11.012,23.121,6.558,27.692,4.8z M19.5,26.072c-0.827,0-1.5-0.673-1.5-1.5s0.673-1.5,1.5-1.5H20v3H19.5z M22,26.072v-4.807  l3.564-8.912c2.238,0.845,8.082,3.054,12.016,4.554l2,0.924c0.033,0.016,0.067,0.029,0.102,0.041  c0.863,0.289,1.636,0.531,2.318,0.727v7.473c0,0.661-0.094,1.331-0.233,2H39c-0.107,0-0.214,0.017-0.316,0.051l-5.097,1.699  l0.633,1.897l0.388-0.129l-0.322,0.965l3.957,1.319c-1.802,1.456-4.047,2.255-6.431,2.196C26.31,35.969,22,31.578,22,26.072z   M31.776,38.07c0.075,0.001,0.149,0.002,0.224,0.002c1.384,0,2.732-0.24,4-0.688v6.688c0,2.206-1.794,4-4,4s-4-1.794-4-4v-6.678  C29.182,37.804,30.448,38.045,31.776,38.07z M51,60H13V49.072c0-2.757,2.243-5,5-5h8c0,3.309,2.691,6,6,6s6-2.691,6-6h8  c2.757,0,5,2.243,5,5V60z"/><path d="M49.443,8.971c0.38-0.38,0.894-0.57,1.422-0.543c0.537,0.03,1.018,0.277,1.354,0.697c0.686,0.858,1.708,1.384,2.805,1.445  c1.097,0.064,2.17-0.349,2.947-1.126l1.736-1.736l-1.414-1.414l-1.736,1.736c-0.38,0.38-0.89,0.575-1.422,0.543  c-0.537-0.03-1.018-0.277-1.354-0.697c-0.686-0.858-1.708-1.384-2.805-1.445c-1.087-0.054-2.17,0.349-2.947,1.126l-1.736,1.736  l1.414,1.414L49.443,8.971z"/><path d="M58.557,14.029c-0.379,0.38-0.885,0.576-1.422,0.543c-0.537-0.03-1.018-0.277-1.354-0.697  c-0.686-0.858-1.708-1.384-2.805-1.445c-1.09-0.054-2.17,0.349-2.947,1.126l-1.736,1.736l1.414,1.414l1.736-1.736  c0.38-0.38,0.891-0.57,1.422-0.543c0.537,0.03,1.018,0.277,1.354,0.697c0.686,0.858,1.708,1.384,2.805,1.445  c1.094,0.064,2.17-0.349,2.947-1.126l1.736-1.736l-1.414-1.414L58.557,14.029z"/><path d="M6.865,8.427c0.537,0.03,1.018,0.277,1.354,0.697c0.686,0.858,1.708,1.384,2.805,1.445c1.099,0.064,2.17-0.349,2.947-1.126  l1.736-1.736l-1.414-1.414l-1.736,1.736c-0.38,0.38-0.89,0.575-1.422,0.543c-0.537-0.03-1.018-0.277-1.354-0.697  C9.095,7.018,8.072,6.491,6.976,6.431C5.891,6.377,4.807,6.78,4.029,7.557L2.293,9.293l1.414,1.414l1.736-1.736  C5.824,8.591,6.337,8.4,6.865,8.427z"/><path d="M15.971,15.443l1.736-1.736l-1.414-1.414l-1.736,1.736c-0.379,0.38-0.885,0.576-1.422,0.543  c-0.537-0.03-1.018-0.277-1.354-0.697c-0.686-0.858-1.708-1.384-2.805-1.445c-1.088-0.054-2.17,0.349-2.947,1.126l-1.736,1.736  l1.414,1.414l1.736-1.736c0.38-0.38,0.891-0.57,1.422-0.543c0.537,0.03,1.018,0.277,1.354,0.697  c0.686,0.858,1.708,1.384,2.805,1.445C14.12,16.634,15.194,16.22,15.971,15.443z"/></svg>